<svg version="1.2" xmlns="http://www.w3.org/2000/svg" viewBox="0 0 249 203" width="249" height="203">
	<title>AdobeStock_149060624-ai</title>
	<style>
		.s0 { fill: #151515 } 
	</style>
	<g id="box cat">
		<path id="&lt;Compound Path&gt;" fill-rule="evenodd" class="s0" d="m160 201.8h-0.1-0.1q-0.2-0.1-0.3-0.1c-8.1-3.3-81.1-44.5-92.8-51.3l-0.3-0.2-3.2 1.4c-9.4 3.4-18.4 1.9-26.4-1.7-8.8-4-15.3-12.7-18.8-21.4-5.2-13-6.7-28.7-2.1-42 3.7-10.6 8.5-18.8 19.9-26l4.8-2.8 0.5-1.3c2.1-5.6 8-20.4 22.5-30.6 14.4-10.1 29-13.9 44.5-13.6 13.2 0.2 25.9 4.2 37.5 13.1 8.6 6.7 14.4 11.8 22.4 24.2 1.8 2.7 6.9 9.8 9.1 12 0.9 0.8 3 2.1 4.7 3.7l1.6-2.6c1.2-2 2.8-4.4 4.5-6.5 2.9-3.5 8.2-8.6 11.8-3.1 3.9 6 8.7 19.6 11.4 28l0.7 2.4 1.1 0.4c6.6 2.6 26.1 11.4 28 12.8l0.1 0.1 0.1 0.1q0.2 0.2 0.3 0.5c1.9 4.3 1.3 17.4 0.8 29.4-0.6 14-1 23.8 0.2 25.7 0.3 0.5 0.3 1.1 0 1.6-2 3.1-12.6 11.4-17 14.1-5.1 3.2-58.5 34.6-65.4 33.7zm0.5-3l1.4-0.2c9.5-2.5 53-27.5 61.9-33 3.9-2.4 12.1-8.8 15.1-12l0.6-0.7-0.2-0.5c-1.1-4.6-0.5-15.5-0.1-25.8 0.5-11 0.9-21.6 0-26.4l-0.4-1.4-0.3-0.2c-4.2-2.3-26.1-12.1-28.1-12.5-0.6-0.1-1-0.5-1.2-1.1-2.3-7.5-7.8-23.9-12-30.4-2.9-4.4-10.6 8.1-13.7 13.9-0.6 0.9-1.9 1-2.6 0.1-1.7-2.5-3.3-2.4-5.9-5-2.5-2.4-7.7-9.7-9.5-12.5-7.7-12-13.3-16.9-21.8-23.4-11-8.5-23.1-12.3-35.7-12.5-14.9-0.3-28.8 3.4-42.7 13.1-15.7 11-20.7 27.7-22.2 31q-0.2 0.5-0.6 0.8c-14.5 7.6-19.8 15.9-23.7 27.3-4.4 12.5-3 27.5 2 40 3.3 8.2 9.4 16.2 17.2 19.8 8.5 3.9 18.1 5 27.8 0 0.4-0.2 1-0.2 1.4 0.1 7.8 4.5 80.6 45.7 92.5 51.2z"/>
		<path id="&lt;Path&gt;" class="s0" d="m65.3 149c-0.2-0.7 0.2-1.6 1-1.9 16.3-5.7 8.6-24.3 27.3-30.8 5.5-1.9 8.6 2 10.6 3.9 1.7 1.6 2.9 2.9 6.8-1.4 5.7-6.4-5.4-18.3-16.4-18.4-21.4-0.3-17.6 25.6-33.3 33.2-21.8 10.7-31.5-16-30.3-32.2 0.5-6.8 2.9-15.2 7.5-19.1 0.6-0.5 1.5-0.5 2.1 0.2 0.5 0.6 0.4 1.5-0.2 2.1-3.6 3.1-6 10.4-6.4 17-1.2 15.5 7.9 38.2 26 29.3 13.2-6.4 11.3-33.8 34.7-33.5 11.5 0.1 27.2 13.7 18.5 23.4-5 5.6-8.3 4.3-11.1 1.6-2.5-2.4-4.1-4.4-7.5-3.2-17.7 6.1-8.9 24.3-27.3 30.8-0.8 0.2-1.7-0.2-2-1z"/>
		<path id="&lt;Path&gt;" class="s0" d="m77.2 105.6c-9.9-7.5-26.7-13.2-38.6-20.9-0.7-0.4-0.9-1.4-0.4-2.1 0.4-0.7 1.4-0.9 2.1-0.4 10.1 6.6 29.4 14 38.7 21 0.7 0.5 0.8 1.4 0.3 2.1-0.5 0.6-1.4 0.8-2.1 0.3z"/>
		<path id="&lt;Path&gt;" class="s0" d="m160.3 146.9h-0.2c-4.5-0.5-46.6-21.5-49.6-24.8l-0.1-0.1-0.1-0.1c-0.5-0.7-0.4-1.6 0.3-2.1 0.7-0.6 1.6-0.4 2.1 0.3l0.9 0.7c6.6 4.5 43.3 22.7 46.8 23.1h0.1c2.2 0.2 10.8-7.2 15.2-7.3 0.8 0 1.5 0.6 1.6 1.5 0 0.8-0.7 1.5-1.5 1.5-2.8 0.1-9.9 5.9-14 7.1z"/>
		<path id="&lt;Path&gt;" class="s0" d="m159.8 200c-1.9-9-2.8-45.4-1.1-54.9 0.1-0.8 0.9-1.4 1.7-1.2 0.8 0.1 1.4 0.9 1.2 1.7-1.6 9.1-0.7 45.2 1.1 53.8 0.2 0.8-0.4 1.6-1.2 1.8-0.8 0.1-1.6-0.4-1.8-1.2z"/>
		<path id="&lt;Path&gt;" class="s0" d="m178.8 142.5c-1.3-2.7-3.6-4.6-4.8-5.4q-0.7-0.5-1.4-0.8c-0.8-0.3-1.2-1.2-0.9-2 0.4-0.7 1.2-1.1 2-0.8q1.1 0.4 2 1.1c1.5 1 4.2 3.3 5.8 6.6 2.6 5.2 5.8 6.7 10.9 5.1 4.7-1.5 8-9.3 2.4-17.9-7-10.7-26.4-1.4-31.4 5.2-1.5 2-1.9 2.5-3.4 4.3-0.5 0.6-1.4 0.7-2.1 0.2-0.6-0.6-0.7-1.5-0.2-2.1 1.5-1.7 1.7-2.2 3.3-4.2 5.2-6.9 27.3-19 36.4-5 6.1 9.4 3.3 19.9-4 22.3-6.8 2.2-11.4-0.2-14.6-6.6z"/>
		<path id="&lt;Path&gt;" class="s0" d="m206.3 120.4l-0.1-0.2-3.1 2c-2.5 1.4-5 2.9-6.4 4-0.6 0.5-1.6 0.4-2.1-0.3-0.5-0.6-0.4-1.6 0.3-2.1 3.6-2.7 9.8-5.8 12-7.7 1-0.8 2.5 0 2.5 1.3l-0.2 2.4 1.2 2.7c1.8 2.9 5.1 6 8.2 6.2 9.3 0.8 11.2-12.6 2.1-20-7-5.6-22.1-0.7-23.4 7.8-0.1 0.8-0.9 1.4-1.7 1.3-0.8-0.2-1.4-0.9-1.3-1.7 1.8-11.3 19.9-16.5 28.3-9.7 10.5 8.5 8.8 26.4-4.2 25.3-6-0.4-11.1-7.3-12.1-11.3z"/>
		<path id="&lt;Path&gt;" class="s0" d="m221.5 109.4c-0.5-0.6-0.5-1.5 0.1-2.1 2.4-2.2 14.5-8.7 16.8-9.5 0.8-0.3 1.7 0.2 1.9 0.9 0.3 0.8-0.1 1.7-0.9 1.9-2.1 0.7-13.7 7.1-15.8 8.9-0.6 0.6-1.5 0.5-2.1-0.1z"/>
		<path id="&lt;Path&gt;" class="s0" d="m123.1 110.2c0-11.1 1.7-46.3 8.9-50.4 6.3-3.7 14.6 6.9 17.9 12.5l0.4 0.8 1.1-0.4c3.2-1.4 9-4.1 13-5 5.7-1.3 11.6-2.2 17.9-1.4 0.9 0.1 1.4 0.8 1.3 1.6-0.1 0.9-0.8 1.4-1.6 1.3-5.8-0.7-11.3 0.2-17 1.5-5.4 1.2-12.6 5.1-15 5.8-0.7 0.2-1.5-0.2-1.8-0.9-2.5-5.4-10.8-15.5-14.7-13.2-4.9 2.8-7.4 34.1-7.4 47.8 0 0.8-0.7 1.5-1.5 1.5-0.8 0-1.5-0.7-1.5-1.5z"/>
		<path id="&lt;Path&gt;" class="s0" d="m216.1 104c0.3-6.2-5.3-13.7-7.2-20.1-0.2-0.8 0.2-1.7 1-1.9 0.8-0.2 1.6 0.2 1.9 1 1.3 4.6 7.6 14.5 7.3 21.1 0 0.9-0.7 1.5-1.6 1.5-0.8 0-1.4-0.7-1.4-1.6z"/>
		<path id="&lt;Path&gt;" class="s0" d="m157.9 113.7c-2.4 0-4.3-2.2-4.3-5 0-2.9 1.9-5.1 4.3-5.1 2.4 0 4.3 2.2 4.3 5.1 0 2.8-1.9 5-4.3 5z"/>
		<path id="&lt;Path&gt;" class="s0" d="m195.6 104.1c-2.4 0-4.4-2.3-4.4-5.2 0-2.8 2-5.1 4.4-5.1 2.4 0 4.3 2.3 4.3 5.1 0 2.9-1.9 5.2-4.3 5.2z"/>
		<path id="&lt;Path&gt;" class="s0" d="m39.1 70c0.4-4.1 0.7-8.3 2.1-12.3 0.3-0.8 1.1-1.2 1.9-1 0.8 0.3 1.2 1.2 1 1.9-1.3 3.7-1.6 7.5-2 11.6-0.1 0.8-0.8 1.4-1.6 1.4-0.9-0.1-1.5-0.8-1.4-1.6z"/>
		<path id="&lt;Path&gt;" class="s0" d="m132.3 125.4c-0.4-0.7-0.2-1.6 0.5-2.1 4.3-2.7 11.9-4.6 16.7-4.9 0.8 0 1.5 0.6 1.6 1.4 0 0.9-0.6 1.6-1.4 1.6-4.5 0.3-11.6 2.1-15.3 4.4-0.7 0.5-1.6 0.3-2.1-0.4z"/>
		<path id="&lt;Path&gt;" class="s0" d="m137.8 132.4c-0.5-0.6-0.4-1.6 0.3-2.1 3.5-2.5 10.1-6.3 14.8-6.3 0.8-0.1 1.5 0.6 1.5 1.4 0 0.9-0.6 1.5-1.4 1.5-3.7 0.1-9.6 3.3-13.1 5.9-0.7 0.5-1.6 0.3-2.1-0.4z"/>
		<path id="&lt;Path&gt;" class="s0" d="m215.3 96.5c-0.1-0.8 0.5-1.6 1.3-1.7 0.7-0.1 4.1-2.1 5.7-2.3 0.8-0.1 1.6 0.5 1.7 1.3 0.1 0.9-0.5 1.6-1.4 1.7-1.1 0.1-3.5 2-5.6 2.3-0.8 0.1-1.6-0.5-1.7-1.3z"/>
		<path id="&lt;Path&gt;" class="s0" d="m216.9 101.4c0-0.9 0.7-1.5 1.6-1.5 1.3 0 5-2.5 7.2-2.5 0.8 0.1 1.5 0.7 1.5 1.6 0 0.8-0.7 1.5-1.6 1.4-0.8 0-5.3 2.5-7.2 2.5-0.9 0-1.5-0.7-1.5-1.5z"/>
	</g>
</svg>