<?xml version="1.0" encoding="UTF-8"?>
<svg id="Layer_2" xmlns="http://www.w3.org/2000/svg" viewBox="0 0 973.45 669.42">
  <defs>
    <style>
      .cls-1 {
        fill: #848484;
      }

      .cls-2 {
        fill: #fff;
      }

      .cls-3 {
        fill: #d3d3d3;
      }
    </style>
  </defs>
  <g>
    <path d="M670.17,232.03c-3.9,0-10.2,1.8-11.4-11.1-1.5-12.6-1.8-20.7-5.7-29.1-3.9-8.4-5.4-17.7-6-27.3-.3-9.9-3.3-28.8-7.5-28.8s-10.2,9.3-12.6,17.4c-2.7,7.8-9.3,18.9-9.9,24.6-.3,5.7-5.4,8.7-7.2,18-1.5,9.3-4.5,25.8-17.7,25.8s-19.5-13.2-22.8-31.5c-3.6-18-6-33.9-9.3-33.9-3.6,0-9.3,7.5-11.1,15-1.8,7.5-4.5,11.1-4.2,20.4.3,9.3-5.1,11.4-7.2,22.8-2.1,11.4-6,19.5-9,31.8-3,12.3-4.5,13.8-4.5,19.8,0,6.3-4.8,8.1-7.8,8.1s-12.3-8.4-12.3-15.9c0-11.1,7.2-28.8,10.2-46.5s12-21.9,12.3-33c.6-11.1,9.9-23.4,14.1-31.8s10.5-18.9,11.1-22.2c.3-3,1.5-6.6,5.4-6.6s11.7,6.3,15.6,15.9c3.9,9.9,7.5,22.5,9.3,32.4,1.8,9.6,3.3,17.1,7.2,17.1s9.9-12.9,12-21.6,10.8-25.5,18-36.6,13.5-22.5,19.5-22.5,14.1,4.5,17.7,14.1c3.9,9.6,9.6,30,9.9,43.2s2.4,20.7,5.1,26.1c2.4,5.4-1.2,15,1.2,20.4,2.7,5.1,5.1,11.7,5.1,16.8,0,4.8-3.9,8.7-7.5,8.7Z"/>
    <path d="M834.57,266.23c-4.5,0-12-8.4-15.9-10.8-3.9-2.4-9.6-6.9-10.2-12-.6-4.8-7.8-9.9-10.8-13.5-2.7-3.3-3.3-9-6.6-9s-7.5,3.3-8.1,9.6c-.3,6.3-7.2,10.8-9,13.5-1.5,3-12.9,14.7-26.4,14.7s-20.4-11.7-23.7-12.9-2.4-9-4.5-12.3c-2.4-3.6-4.5-12.6-4.5-20.4s6.3-23.1,10.8-32.1c4.5-9.3,19.2-21,21.3-22.8,2.4-1.5,9,0,11.4-3.3,2.1-3.3,8.4,1.8,10.5-.6,2.4-2.1,4.5-1.2,6.9-1.2,5.1,0,14.1,5.1,18,7.5,3.9,2.1,11.4,6.6,11.4,15.3s-1.2,20.1,0,24.6c1.2,4.5,5.7,13.8,10.8,21,5.1,7.5,9,16.5,15,21,6.3,4.5,13.2,9,13.2,13.5s-5.1,10.2-9.6,10.2ZM770.67,172.93c-2.7,0-3.9-.6-7.2-.6-3.6,0-4.5,4.2-7.5,6.3-2.7,2.4-1.5,6.9-5.7,7.5-3.9.3-3.9,11.7-8.4,11.7s-5.7,15.3-5.7,22.5.6,18.3,10.2,18.3,19.2-17.1,23.7-25.5,8.1-22.2,9-26.7c1.2-4.5,5.1-11.1,3.9-14.1-.9-2.7-9,.6-12.3.6Z"/>
    <path d="M926.07,231.43c-6.3,7.5-18.3,18.9-26.7,18.9s-24.9-9.6-28.8-10.2c-3.9-.3-4.2-16.5-8.1-18.6-3.9-2.1-7.2-13.8-7.2-19.8s6-13.5,7.5-19.8c1.8-6.3,5.1-10.2,9-10.2s12,2.1,12,6c0,3.6-7.2,14.7-7.2,22.2s6.6,13.8,6.6,16.5c0,3,3.6,9.9,12.3,9.9s13.5-5.1,18.6-13.5c5.1-8.7,5.7-11.4,5.7-15.3s-6.9-14.7-11.1-17.1c-4.2-2.1-11.1-4.8-14.4-4.8s-8.4-5.7-8.4-12,8.4-14.1,11.7-14.1c3.9,0,20.1,13.2,24.6,15,4.8,1.5,17.1,15.9,17.1,30.3s-6.9,28.8-13.2,36.6Z"/>
  </g>
  <g>
    <g>
      <path class="cls-2" d="M194.81,516.46c3.29,18.34,7.05,36.53,16.14,52.79,4.23,7.57,6.02,15.07,9,23.22,2.49,6.81,7.03,11.96,10.91,20.48s5.29,18.05,10.7,25.64,13.32,13.7,22.46,15.53c10.39,2.08,21-1.44,31.01-4.92,3.75-1.3,7.53-2.62,10.92-4.67,3.99-2.42,7.3-5.77,10.93-8.7,12.77-10.3,29.58-15.41,40.51-27.65,2.9-3.24,5.34-6.95,8.75-9.65,4.29-3.39,9.72-4.88,14.83-6.82,11.74-4.47,22.4-11.76,30.83-21.07,1.58-1.75,3.1-3.59,4.14-5.71,1.45-2.98,1.88-6.39,1.63-9.69-.61-8.22-5.1-15.57-9.47-22.55-5.97-9.56-11.94-19.11-17.91-28.67-2.19-3.5-4.38-7.01-6.79-10.36-2.61-3.62-5.46-7.05-8.32-10.47-10.31-12.37-20.73-24.91-27.72-39.42-1.63-3.39-3.12-6.95-5.66-9.73s-6.48-4.66-10.1-3.62c-4.87,1.4-7.37,7.35-12.25,8.72-2.03.57-4.19.25-6.29.04-8.27-.85-16.61-.05-24.88.75-2.53.25-5.08.49-7.54,1.15-2.58.69-5.01,1.82-7.43,2.94-8.65,4.02-17.3,8.04-25.96,12.06-1.63.76-3.28,1.52-5.04,1.88-1.9.39-3.87.29-5.78.62-2.96.51-5.64,2.02-8.25,3.5-12.89,7.31-25.97,14.76-36.34,25.35-1.61,1.64-3.22,3.51-3.5,5.79-.18,1.42.18,2.84.53,4.23,1.23,4.8,4.73,14.23,5.96,19.03"/>
      <path class="cls-2" d="M190.5,517.62c2.33,12.9,4.87,25.86,9.45,38.18,2.1,5.65,4.83,10.87,7.56,16.23,2.95,5.8,4.81,12.01,6.91,18.14,3.64,10.64,10.79,19.44,14.53,30.07,3.93,11.17,7.45,21.49,17.19,29.03,8.77,6.79,19.29,8.97,30.18,7.35,6-.89,11.79-2.7,17.51-4.65s11.29-3.78,16.25-7.11,9.34-7.94,14.43-11.4c4.69-3.19,9.71-5.89,14.64-8.69,9.17-5.21,17.57-10.84,24.36-19,4.29-5.16,8.15-8.23,14.51-10.6,5.77-2.15,11.35-4.38,16.72-7.44,9.14-5.21,20.32-13.1,25.21-22.72s-.09-21.1-5.25-29.79c-7.05-11.86-14.57-23.49-21.93-35.16-7.02-11.13-15.81-20.77-23.92-31.08-3.69-4.69-7.25-9.48-10.48-14.5-3.67-5.7-6.29-11.82-9.59-17.7-4.74-8.44-14.18-11.9-22.64-6.27-1.9,1.26-3.39,2.92-5.06,4.45-2.24,2.06-3.34,1.99-6.36,1.74-6.76-.56-13.48-.29-20.23.28s-13.64,1.19-20.08,3.92c-6.83,2.89-13.5,6.24-20.22,9.36-3.4,1.58-6.78,3.49-10.29,4.76-3.18,1.15-6.56.84-9.8,1.79-6.22,1.83-11.99,5.82-17.53,9.08-10.44,6.14-23.42,13.44-30.6,23.51-3.02,4.24-1.76,8.3-.33,12.9,1.59,5.11,3.48,10.13,4.87,15.31.81,2.99,9.44.7,8.63-2.31-1.05-3.89-2.38-7.69-3.64-11.51-1.11-3.36-3.83-8.96-2.53-12.46,1.69-4.56,8.22-8.83,11.91-11.67,4.48-3.46,9.26-6.53,14.11-9.45s9.55-6.14,14.58-8.31c2.68-1.15,5.27-1.08,8.06-1.58,2.58-.46,4.95-1.44,7.34-2.49,5.52-2.45,10.96-5.09,16.44-7.64,5.1-2.37,10.36-5.52,15.82-6.98,6.11-1.64,13.36-1.74,19.65-1.93,5.4-.16,11.01,1.08,16.36.49,4.02-.44,7.35-2.31,10.33-4.96,1.08-.96,2.98-3.74,4.47-4.11,2.55-.65,5.34,2.47,6.71,4.23,3.43,4.4,5.31,10.23,8.09,15.06,2.63,4.57,5.53,8.96,8.63,13.22,6.8,9.36,14.61,17.89,21.67,27.04,7.32,9.5,13.27,20.12,19.62,30.28,5.91,9.46,13.92,19.4,16.1,30.59,2.46,12.67-7.74,21.46-17.19,28.1-4.4,3.09-9.12,5.71-14.08,7.78-4.63,1.93-9.51,3.27-13.95,5.63-9.02,4.8-13.82,14.34-22.02,20.28s-16.94,9.78-25.12,15.12c-4.16,2.72-7.92,5.82-11.69,9.04-4.73,4.02-9.61,6.32-15.43,8.34-11.9,4.14-24.31,7.6-35.9.69-11.57-6.9-15.62-18.18-19.85-30.19-3.74-10.63-10.9-19.43-14.53-30.07-2-5.84-3.75-11.78-6.51-17.33s-5.75-11.11-7.96-17.04c-4.59-12.32-7.13-25.28-9.45-38.18-.53-2.93-9.2-.86-8.63,2.31h0Z"/>
    </g>
    <g>
      <path class="cls-2" d="M51.42,126.99c-25.19,34.32-29.24,82.71-10.1,120.68,4.07,8.08,9.16,15.86,11.08,24.69,2.53,11.61-.68,23.6-3.73,35.09-15.17,57.04-27.04,116.89-15.23,174.7,19.72-10.26,39.44-20.53,59.16-30.79,1.68-.88,3.57-1.78,5.41-1.31,1.68.43,2.85,1.89,3.86,3.28,9.82,13.54,16.36,29.23,26.53,42.5,10.17,13.28,25.98,19.4,42.44,22.84,18.06,3.78,32.01,2.7,34.47-36.05,1.13-17.83-4.89-35.61-15.85-49.8-1.43-1.86-3.01-3.87-3.01-6.2,0-3.61,3.59-6.05,6.77-7.82,18.94-10.54,37.87-21.09,56.81-31.63,6.88,19,16.52,37.02,28.52,53.33,9.16,12.45,20.51,24.43,35.44,28.73,14.93,4.3,35.27,3.19,40.11-11.45,1.55-4.68.14-14.9-.13-19.82-3.02-56.29-39.8-105.18-52.64-160.09,10.83,2.18,21.2-5.69,27.62-14.6,6.52-9.04,10.79-19.67,12.34-30.68,1.77-12.61-.01-25.42-1.89-38.02-8.3-55.53-18.69-110.75-31.13-165.51-1.04-4.58-2.36-9.56-6.2-12.3-6.27-4.47-14.97-.41-21.25,4.06-24.92,17.75-48.32,43.11-60.71,70.93-4.5,10.11-3.03,15.77-13.83,18.51-9.52,2.42-16.32,4.63-26.15-.55-7.54-3.98-10.27-13.47-14.14-21.02-8.89-17.37-25.14-37.85-34.02-55.22-6.58-12.85-21.98-26.7-21.98-26.7-11.08-2.03-22.41,4.14-29.41,12.89-7,8.75-10.45,19.71-13.39,30.49-7.23,26.5-12.24,53.6-14.97,80.92"/>
      <path class="cls-2" d="M48.87,126.93c-26.89,34.07-32.93,81.51-14.02,120.89,5.09,10.61,11.88,20.45,12.35,32.6.51,13.2-4.6,26.3-7.88,38.9-6.59,25.29-12.27,50.97-15.17,76.96-3.26,29.17-3.18,58.76,3.03,87.54.82,3.81,8.29,1.16,10.14.18,14.44-7.67,28.97-15.14,43.49-22.65,2.91-1.5,5.82-3.01,8.73-4.51,1.68-.87,3.7-1.62,5.24-2.71l1.62-.81c-2.35-.11-2.78.38-1.27,1.47.64,2.54,4.14,5.94,5.56,8.23,2.27,3.65,4.38,7.4,6.49,11.15,6.3,11.21,12.4,23.6,22.38,32.03,9.28,7.83,20.86,12.23,32.53,15.09,13.91,3.4,30.91,5.09,41-7.39,5.65-6.99,7.38-16.72,8.36-25.39,1.49-13.21.45-26.23-4.5-38.66-2.84-7.12-6.81-13.46-11.25-19.66-2.5-3.5-3.5-6.01.49-8.7,3.08-2.07,6.57-3.68,9.81-5.49,16.1-8.96,32.26-17.81,48.36-26.76l-11.33-.2c8.66,23.74,21.34,47.8,38.83,66.28,14.95,15.8,36.53,23.94,58.1,18.58,8.94-2.22,18.36-7.66,21.21-17,1.24-4.07.76-8.76.47-12.92-.38-5.4-.72-10.82-1.33-16.19-2.83-24.91-11.91-48.56-21.69-71.46-11.24-26.33-23.68-52.32-30.36-80.3l-11.18,5.62c25.9,4.15,44.47-20.9,49.82-43.36,3.19-13.4,1.87-27.31-.1-40.78-2.12-14.49-4.44-28.97-6.84-43.42-4.92-29.63-10.44-59.16-16.55-88.57-2.84-13.66-5.36-27.58-9.2-41.01-1.36-4.78-3.52-9.37-8.13-11.76-5.52-2.85-12.42-1.79-18.04.15-11.55,3.98-21.67,13.16-30.64,21.18s-17.93,17.48-25.55,27.37c-7.41,9.62-13.89,20.03-18.74,31.18-1.59,3.66-2.34,7.89-4.27,11.38s-7.18,3.9-10.93,4.56c-13.52,2.36-18.97-9.15-23.78-19.3-4.91-10.36-11.44-19.95-17.77-29.48-6.84-10.3-12.99-20.83-19.3-31.44-4.98-8.37-11.69-15.74-18.7-22.44s-20.8-2.81-28.71,1.12c-12.8,6.36-20.56,17.98-25.32,31.12-5.2,14.33-8.4,29.62-11.4,44.54-3.27,16.27-5.62,32.69-7.21,49.2-.5,5.19,12.51,2.75,12.98-1.63,2.87-26.7,7.75-53.19,14.77-79.11,3.08-11.36,6.44-23.79,14.63-32.68,3.25-3.52,7.52-6.86,12.3-7.88,1.06-.23,5.14-.17,3.34-.96.73.32,1.49,1.4,2.06,1.94,6.22,5.99,12.2,12.5,16.9,19.76,5.96,9.2,10.95,19.01,17.01,28.2,6.43,9.74,13.21,19.36,18.64,29.71,4.22,8.05,6.89,18.11,15.07,23.16,10.01,6.19,21.35,4.56,32.13,1.77,8.33-2.16,14.9-5.52,18.06-13.84,7.87-20.71,19.58-38.8,35.07-54.73,8.05-8.28,16.83-16.15,26.31-22.79,4.1-2.87,8.83-6.44,12.91-1.56,3.7,4.42,4.17,11.86,5.31,17.26,5.54,26.2,11.2,52.35,16.14,78.67,5.63,30,11.41,60.24,14.87,90.58,1.62,14.22,1.3,28.35-4.14,41.78-3.53,8.69-12.86,26.45-24.52,24.58-2.83-.45-12.28.97-11.18,5.62,10.56,44.35,35.83,83.4,47.27,127.44,2.79,10.74,4.53,21.61,5.26,32.69.49,7.45,3.01,17.42-2.63,23.53-4.74,5.14-13.59,4.45-19.81,3.37-10.07-1.73-18.65-6.77-26.05-13.72-19.13-17.99-32.42-43.39-41.41-67.74-1.5-4.07-8.86-1.58-11.33-.2-13.74,7.67-27.45,15.37-41.17,23.08-6.32,3.55-13.28,6.65-19.09,10.99-4.47,3.33-7.33,7.84-4.38,13.16,3.19,5.73,7.58,10.55,10.44,16.56s4.95,12.4,6.12,18.96c2.13,11.93,1.23,25.27-2.49,36.85-1.03,3.21-2.41,6.59-4.72,9.12-.74.81-1.44,1.27-2.1,1.78-1.52,1.16.79-.38-.91.43,1.52-.73-1.96.3-.35.09-6.05.78-14.66-1.43-21.23-3.33-12.08-3.5-23.31-9.55-31.21-19.54-8.59-10.88-14.5-23.59-21.92-35.24-3.35-5.25-6.52-11.72-13.59-11.66-7.96.07-15.78,5.96-22.57,9.52-15.64,8.2-31.25,16.43-46.98,24.46,3.38.06,6.76.12,10.14.18-9.43-51.31-1.86-103.31,10.25-153.49,3.02-12.51,7.1-25.04,8.84-37.81,1.69-12.45-1.01-23.06-6.84-34.04-10.08-18.98-16.91-38.04-17.1-59.8-.21-23.83,5.99-48.28,19.12-68.28,1.44-2.2-4.09-1.39-5.1-.11h0Z"/>
    </g>
    <g>
      <path class="cls-3" d="M187.63,106.02c3.96,28-11.06,56.01-32.06,74.33-21,18.33-47.32,28.73-73.18,38.52-12.42,4.7-24.92,9.34-37.86,12.18-1.94.43-3.99.81-5.89.2-4.84-1.55-5.81-8.05-5.81-13.25-.02-16.29.73-32.58,2.23-48.8,1.15-12.4,2.92-25.28,9.79-35.55,4.63-6.92,11.46-12.46,14.21-20.36,1.56-4.48,1.66-9.34,1.92-14.09,1.23-22.45,6.43-44.57,14.35-65.53,4.19-11.07,10.26-22.93,21.24-26.66,13.68-4.65,23.86,16.65,29.41,25.89,4.38,7.3,10.01,13.08,13.84,20.87,4.91,9.98,8.11,20.74,12.84,30.8,2.48,5.28,5.21,10.56,9.24,14.72s9.59,7.1,15.29,6.7c3.39-.24,7.75-1.2,9.43,1.83"/>
      <path class="cls-3" d="M183.41,107.15c2.84,39.7-25.15,71.65-58.1,89.57-17.24,9.38-35.91,16.18-54.31,22.87-5.1,1.85-10.23,3.61-15.43,5.15-3.16.94-11.02,4.58-13.72,2.2-2.46-2.17-2.46-7.1-2.55-10.07-.17-5.74.07-11.54.25-17.28.35-10.98,1.01-21.96,2.07-32.9.94-9.64,2.21-19.81,6.62-28.58,4.06-8.07,11.42-13.81,15.51-21.84,4.5-8.82,3.41-19.47,4.48-29.07,2.27-20.22,7.21-40.97,15.39-59.65,1.69-3.86,3.7-7.61,6.25-10.98,1.81-2.39,5.26-6.61,8.56-6.9,5.18-.46,10.91,7.68,13.42,11.28,4.62,6.6,8,13.97,12.56,20.62,3.12,4.55,6.4,8.99,8.89,13.94,2.63,5.24,4.65,10.79,6.73,16.26,3.83,10.07,7.62,21.42,15,29.53,3.21,3.53,7.3,6.25,11.88,7.6,2.48.73,5.03,1,7.61.94,2-.04,4.54-1.06,5.88.59,2.82,3.47,15.6-.9,12.39-5.22-2.61-3.51-7.34-3.56-11.34-3.28-5.7.4-9.98-1.73-13.88-5.93-8.07-8.7-11.72-21.3-16.05-32.09-4.19-10.44-9.4-18.9-16.11-27.85-4.69-6.27-8.12-13.32-12.66-19.7-4.18-5.88-9.42-11.68-16.84-13.08-8.38-1.58-17.43,2.78-23.33,8.52-6.39,6.22-10.27,14.42-13.44,22.64-4.26,11.06-7.71,22.47-10.22,34.05-2.58,11.92-3.68,23.84-4.56,35.97-.41,5.69-1.58,10.76-4.84,15.52-2.95,4.31-6.71,8-9.75,12.25-6.15,8.59-8.83,18.95-10.23,29.27-1.6,11.84-2.29,23.87-2.78,35.8-.25,6.19-.4,12.38-.43,18.57-.02,4.32-.26,8.91,1.55,12.94,4.41,9.87,16.88,5.79,24.83,3.63,21.64-5.87,43.21-14.5,63.59-23.84s41.91-22.3,56.89-40.71c14.19-17.44,22.88-40.46,18.64-63.01-.55-2.95-8.66-.79-8.45,2.26h0Z"/>
    </g>
    <g>
      <path class="cls-1" d="M197.09,105.61c3.3,20.78,14.17,39.85,28.3,55.45,14.12,15.6,31.42,28,49.29,39.12,17.75,11.05,37.04,21.21,57.93,22.09,4.19.18,8.79-.18,11.86-3.03,3.18-2.95,3.81-7.71,3.73-12.05-.39-21.55-13.17-40.71-18.96-61.46-5.94-21.3-4.41-43.85-6.03-65.9-1.64-22.38-6.6-44.51-14.65-65.45-1.96-5.11-5.36-11.01-10.83-10.88-2.75.07-5.18,1.74-7.4,3.37-14.59,10.7-28.58,22.21-41.9,34.46-9.77,8.99-19.28,18.51-26.01,29.95-6.73,11.44-10.5,25.1-7.97,38.13-4.24-.33-8.49-.45-12.74-.35"/>
      <path class="cls-1" d="M193.6,106.54c.13,18.91,10.46,37.39,22.13,51.71,12.33,15.12,27.77,27.32,43.9,38.14s34.26,22.02,53.86,26.93c14.66,3.68,40.2,5.68,40.91-15.46.67-19.74-9.98-37.64-16.43-55.66-7.25-20.25-7.24-41.42-8.07-62.63-.85-21.93-4.21-43.55-10.92-64.48-2.35-7.34-4.56-17.68-11.13-22.58-7.29-5.43-16.51-.95-22.9,3.62-19.23,13.74-38.16,28.95-54.36,46.23-14.9,15.89-26.73,36.28-22.73,58.82l9.15-5.5c-4.26-.29-8.5-.39-12.77-.32-2.64.05-7.3.85-8.62,3.56s1.07,3.87,3.54,3.84c4.25-.05,8.48.08,12.72.39,2.69.2,9.8-1.63,9.15-5.5-3.05-18.24,5.35-35.17,16.77-48.85s26.05-25.8,40.05-37.14c3.36-2.72,6.73-5.45,10.13-8.12,1.94-1.52,3.87-3.05,5.84-4.53.66-.49,1.49-1.37,2.27-1.65.98-.68,1.06-.72.25-.12l1.16.79c1.93,2.7,3.69,4.82,4.97,7.99,1.86,4.62,3.43,9.38,4.91,14.13,5.57,17.88,8.89,36.41,9.99,55.1,1.11,18.88.31,38.04,4.39,56.62,3.66,16.69,12.2,31.67,17.04,47.97,2.22,7.48,4.69,16.93,2.53,24.68-1.31,4.69-3.83,4.45-8.06,4.17s-8.82-1.11-13.12-2.21c-17.12-4.39-32.7-13.9-47.42-23.39-16.59-10.7-32.49-22.89-45.31-38.01-6.27-7.4-11.93-15.56-16.43-24.17s-7.33-17.28-10.42-26.22c-.87-2.53-6.99-.56-6.98,1.87h0Z"/>
    </g>
    <g>
      <path d="M423.75,316.73c2.1-.47,3.69.97,1.2,2.07-13.86,6.16-28.3,10.94-42.18,17.1-13.82,6.13-27.01,13.73-40.82,19.79-.56-1.48-1.13-2.95-1.72-4.42,5.69-3.43,11.95-6.2,17.86-9.09,7.03-3.44,14.15-6.68,21.37-9.72,14.31-6.03,29.11-12.25,44.29-15.73Z"/>
      <path d="M370.09,257.6c1.75,1.25-3.65,2.89-4.79,2.43-7.1-2.86-13.88-5.75-21.33-7.7-1.55-.41-3.11-.79-4.67-1.15.88-1.46,1.7-2.96,2.47-4.49,10,2.19,20.26,5.14,28.32,10.91Z"/>
      <path d="M360.87,218.26c2.47.39-.86,2.27-1.65,2.42-3.32.64-6.75.96-10.19,1.18.16-1.32.3-2.64.41-3.97,3.85-.19,7.73-.22,11.43.37Z"/>
      <path d="M361.01,441.03c.1,10.4,1.24,22.03-9.97,26.59-7.09,2.88-15.26,5.3-23.3,5.77.88-.19,1.76-.69,1.86-1.27.17-.94.3-1.95.36-2.99,5.28-.46,10.51-2.12,15.48-3.74.16-.05.32-.1.47-.16.2.24.41.48.63.7,1.27,1.32,5.46.13,5.41-1.85-.03-.88-.18-1.75-.44-2.63.37-.59.67-1.27.92-2.07.77-2.5.68-5.55.78-8.12.47-11.93-.5-23.89-2.51-35.65-3.47-20.39-10.01-40.05-17.54-59.27l2.75-1.09c.52,1.16,3.76,1.44,5.48.69.19-.08.37-.16.56-.25,1.16,3.02,2.29,6.05,3.38,9.1,8.79,24.49,15.42,50.08,15.68,76.24Z"/>
      <path d="M357.4,284.51c1.44,1.07-2.75,2.07-3.3,2-6.18-.79-12.34-3.76-18.06-6.13-5.55-2.31-11.05-4.75-16.48-7.33,1.28-.97,2.54-1.99,3.76-3.04,5.77,2.64,11.6,5.13,17.49,7.47,5.34,2.12,11.98,3.59,16.59,7.03Z"/>
      <path d="M351.95,464.08c.05,1.98-4.14,3.17-5.41,1.85-.22-.22-.43-.46-.63-.7,2.47-.82,4.37-1.75,5.6-3.78.26.88.41,1.75.44,2.63Z"/>
      <path d="M347.74,453.01c1.21,2.62,2.98,5.52,3.77,8.44-1.23,2.03-3.13,2.96-5.6,3.78-2.24-2.72-3.26-6.41-4.61-9.63-1.64-3.91-3.28-7.83-4.92-11.75-.84-2.01,5.38-3.86,6.37-1.71,1.66,3.62,3.33,7.25,4.99,10.87Z"/>
      <path d="M349.52,194.92c.43,7.59.57,15.33-.08,22.97-2.58.13-5.15.32-7.65.45,1.02-11.9.12-24.19-1.58-36.1-1.75-12.28-4.82-24.28-8.7-36.05-3.39-10.3-9.09-21.38-9.84-32.27-.05-.64.31-1.2.88-1.65,0,.36-.02.73-.03,1.09-.06,1.93,4.41.95,4.66-.58.07-.4.13-.8.19-1.2.29.15.52.36.67.64,3.39,6.23,5.13,13.52,7.47,20.2,2.3,6.57,4.61,13.13,6.6,19.79,4.16,13.94,6.58,28.2,7.41,42.71Z"/>
      <path d="M349.44,217.89c-.11,1.33-.25,2.65-.41,3.97-2.55.17-5.11.28-7.65.42.16-1.31.3-2.62.41-3.94,2.5-.13,5.07-.32,7.65-.45Z"/>
      <path d="M341.38,222.28c2.54-.14,5.1-.25,7.65-.42-.92,7.4-2.66,14.65-5.69,21.52-.49,1.12-1.02,2.22-1.57,3.31-2.19-.48-4.37-.93-6.5-1.35,3.21-7.3,5.13-15.07,6.11-23.06Z"/>
      <path d="M341.95,355.69c-.19.09-.37.17-.56.25-1.72.75-4.96.47-5.48-.69-.24-.53.1-1.25,1.42-2.14.95-.64,1.91-1.25,2.9-1.84.59,1.47,1.16,2.94,1.72,4.42Z"/>
      <path d="M341.19,218.37l.6-.03c-.11,1.32-.25,2.63-.41,3.94-1.36.07-2.7.15-4.04.26-6.58.52-13.15,1.08-19.71,1.78-6.88.73-13.75,1.58-20.61,2.5-5.79.79-11.99,2.55-17.84,1.82-2.33-.29-.45-2.33.64-2.8,5.91-2.53,12.96-2.79,19.29-3.63,7.16-.94,14.34-1.71,21.54-2.36,6.84-.61,13.69-1.15,20.54-1.48Z"/>
      <path d="M341.77,246.69c-.77,1.53-1.59,3.03-2.47,4.49-2.07-.47-4.14-.91-6.21-1.33.79-1.48,1.52-2.99,2.18-4.51,2.13.42,4.31.87,6.5,1.35Z"/>
      <path d="M340.23,351.27c-.99.59-1.95,1.2-2.9,1.84-1.32.89-1.66,1.61-1.42,2.14l-2.75,1.09c-.99-2.52-1.99-5.03-3.01-7.54-8.88-21.85-19.76-43.19-27.07-65.63-.03-.08-.05-.15-.05-.22,1.9-.87,3.76-1.8,5.59-2.8.82.12,1.49.45,1.77,1.06,6.53,13.93,12.28,28.26,18.36,42.39,3.95,9.18,7.84,18.37,11.48,27.67Z"/>
      <path d="M331.49,244.58c1.24.25,2.5.5,3.78.76-.66,1.52-1.39,3.03-2.18,4.51-3.16-.64-6.33-1.22-9.49-1.8-12.58-2.3-28.3-3.7-39.1-11.13-2.38-1.63,2.76-3.32,4.08-2.97,7.33,1.92,14.43,4.53,21.82,6.26,6.99,1.63,14.05,2.95,21.09,4.37Z"/>
      <path d="M333.09,249.85c2.07.42,4.14.86,6.21,1.33-4.26,7.13-9.7,13.45-15.98,18.83-.04-.02-.09-.04-.13-.06-1.41-.64-2.81-1.29-4.21-1.96,1.09-1,2.15-2.03,3.18-3.09,4.51-4.65,8.11-9.71,10.93-15.05Z"/>
      <path d="M321.93,444.94c6.05,5.12,8.62,15.93,8.03,24.19-1.52.13-3.04.17-4.57.07-.26-.02-.52-.04-.77-.06-.91-3.19-1.58-6.47-2.56-9.64-1.31-4.22-3.59-8.93-3.65-13.35-.02-1.37,2.63-1.97,3.52-1.21Z"/>
      <path d="M329.96,469.13c-.06,1.04-.19,2.05-.36,2.99-.1.58-.98,1.08-1.86,1.27-.35.03-.7.04-1.04.06-.42-.06-.75-.24-.88-.59-.46-1.22-.85-2.46-1.2-3.72.25.02.51.04.77.06,1.53.1,3.05.06,4.57-.07Z"/>
      <path d="M326.7,473.45c.34-.02.69-.03,1.04-.06-.36.08-.73.11-1.04.06Z"/>
      <path d="M326.83,58.36c2.87,17.58,3.37,35.62.54,53.22-1.25-.7-3.56-.3-4.82.69.5-18.31-.37-36.5-3.84-54.52-2.96-15.34-7.22-32.33-14.95-46.04-2.45-4.34-5.24-6.01-10.08-3.58-3.32,1.68-6.56,3.56-9.7,5.57-6.21,3.98-12.06,8.55-17.44,13.6-23.59,22.12-36.73,51.04-52.17,78.81-1.12,2.01-9.29,3.14-8.1.44.23-.52.46-1.04.69-1.55,1.55-.23,3.07-.54,4.54-.99,1.28-.39,4.47-2.72,1.51-3.29-1.28-.24-2.59-.37-3.92-.43,7.79-16.92,16.98-33.44,27.84-48.51,9.71-13.48,21.24-25.71,34.64-35.59,8.94-6.58,29.53-22.79,38.92-9.15,4.61,6.7,7.06,15.6,9.52,23.27,2.94,9.16,5.27,18.55,6.82,28.05Z"/>
      <path d="M327.37,111.58c-.06.4-.12.8-.19,1.2-.25,1.53-4.72,2.51-4.66.58.01-.36.02-.73.03-1.09,1.26-.99,3.57-1.39,4.82-.69Z"/>
      <path d="M326.7,473.45c-3.92.15-7.8-.19-11.5-1.18-10.91-2.92-19.73-10.58-27.58-18.36-9-8.92-17.15-18.87-23.73-29.72-6.21-10.23-10.94-20.96-13.57-32.11,1.59-.84,3.16-1.71,4.72-2.59,3.83,13.54,10.72,26.38,18.82,37.59,6.49,9.01,13.83,17.35,21.79,25.09,7.94,7.73,17.47,15.9,28.97,16.97.35,1.26.74,2.5,1.2,3.72.13.35.46.53.88.59Z"/>
      <path d="M323.19,269.95s.09.04.13.06c-1.22,1.05-2.48,2.07-3.76,3.04-.28-.13-.55-.26-.83-.39-1.1-.53-2.2-1.06-3.3-1.6,1.22-.99,2.4-2.01,3.55-3.07,1.4.67,2.8,1.32,4.21,1.96Z"/>
      <path d="M319.56,273.05c-3.45,2.64-7.12,5.01-10.94,7.1-2.31-.33-5.85,1.04-5.59,2.8-6.29,2.89-12.92,5.05-19.68,6.4-2.97.6-3.67-1.78-.66-2.46,12.02-2.73,23.24-8.11,32.74-15.83,1.1.54,2.2,1.07,3.3,1.6.28.13.55.26.83.39Z"/>
      <path d="M318.98,267.99c-1.15,1.06-2.33,2.08-3.55,3.07-10.5-5.17-20.71-10.94-30.72-17-1.84-1.11,2.35-2.94,3.62-2.19,9.95,5.89,20.19,11.22,30.65,16.12Z"/>
      <path d="M303.03,282.95c-.26-1.76,3.28-3.13,5.59-2.8-1.83,1-3.69,1.93-5.59,2.8Z"/>
      <path d="M294.52,65.07c2.21,6.34.81,14.78.77,21.36-.02,4.13-.05,8.27-.07,12.4-.02,3.98.53,8.44-.07,12.39-.59,3.94-3.35,4.91-6.51,4.82l.06-1.89c.77-.46,1.54-.92,2.32-1.39-.5.16-1.14.18-1.85.11.59-2.41.1-5.97.1-8.11-.01-2.54-.01-5.08-.02-7.62-.01-5.07-.02-10.15-.03-15.23,0-3.9.27-7.92-.19-11.82-.19-1.69-.61-4.83-2.13-5.92.2-1.19-.19-1.08-1.16.32-.78.72-1.53,1.45-2.27,2.21-5.73,5.89-10.18,12.94-13.92,20.23-2.12,4.11-4,8.35-5.79,12.62-1.23,2.95-2.24,5.98-3.91,8.66-1.05.5-1.88,1.23-1.17,1.67-.13.18-.27.35-.42.52-.51.59-4.02,2.21-4.2.54-.62-5.85,4.13-13.21,6.57-18.4,2.95-6.24,6.24-12.35,10.27-17.96,4.01-5.57,18.61-23.87,23.62-9.51Z"/>
      <path d="M291.02,112.76c-.78.47-1.55.93-2.32,1.39.21-.37.36-.8.47-1.28.71.07,1.35.05,1.85-.11Z"/>
      <path d="M289.27,104.76c0,2.14.49,5.7-.1,8.11-2.07-.19-4.73-1.11-6.22-1.4-2.21-.41-4.41-.83-6.62-1.25-4.78-.9-9.56-1.73-14.36-2.52-.5-.08-1.37.16-2.12.51,1.67-2.68,2.68-5.71,3.91-8.66,1.79-4.27,3.67-8.51,5.79-12.62,3.74-7.29,8.19-14.34,13.92-20.23.74-.76,1.49-1.49,2.27-2.21.97-1.4,1.36-1.51,1.16-.32,1.52,1.09,1.94,4.23,2.13,5.92.46,3.9.18,7.92.19,11.82.01,5.08.02,10.16.03,15.23.01,2.54.01,5.08.02,7.62Z"/>
      <path d="M289.17,112.87c-.11.48-.26.91-.47,1.28l-.06,1.89c-1.14-.03-2.34-.19-3.5-.41-8.66-1.61-17.3-3.52-25.88-5.53-.26-.06-.45-.13-.58-.22.43-.54.82-1.09,1.17-1.67.75-.35,1.62-.59,2.12-.51,4.8.79,9.58,1.62,14.36,2.52,2.21.42,4.41.84,6.62,1.25,1.49.29,4.15,1.21,6.22,1.4Z"/>
      <path d="M259.85,108.21c-.35.58-.74,1.13-1.17,1.67-.71-.44.12-1.17,1.17-1.67Z"/>
      <path d="M256.23,214.47c2.66,2.72,3.49,7.4,1.06,11.22-3.73,5.86-13.06,8.71-18.84,4.25-5.61-4.32-5.7-13.18-.1-17.52,4.99-3.87,13.97-4.33,17.75,1.44.13.21.17.41.13.61-1.92-1.96-4.79-2.9-8.07-1.74-2.3-.78-4.89-.36-6.59,1.91-2.33,3.11-1.59,7.94.59,10.93,2.92,4.02,7.81,3.77,10.11-.76.97-1.9,1.14-4.14.28-6.12-1.13-2.59-3.06-3.17-5.42-4.16-1.11-.48.26-1.53.77-1.72.09-.03.18-.06.26-.08,1.51.5,2.89,1.52,3.84,2.86.73,1.04,4,.13,4.23-1.12Z"/>
      <path d="M255.97,386.23c1.31,1.09.71,2.33-.7,3.13-.08.04-.15.09-.23.13-.35-1.23-.67-2.47-.97-3.71.75-.05,1.43.06,1.9.45Z"/>
      <path d="M254.07,385.78c.3,1.24.62,2.48.97,3.71-1.56.88-3.13,1.75-4.72,2.59-.36-1.52-.68-3.05-.96-4.58.32-.17.63-.35.94-.52.81-.45,2.39-1.11,3.77-1.2Z"/>
      <path d="M256.23,214.47c-.23,1.25-3.5,2.16-4.23,1.12-.95-1.34-2.33-2.36-3.84-2.86,3.28-1.16,6.15-.22,8.07,1.74Z"/>
      <path d="M252.55,218.69c.86,1.98.69,4.22-.28,6.12-2.3,4.53-7.19,4.78-10.11.76-2.18-2.99-2.92-7.82-.59-10.93,1.7-2.27,4.29-2.69,6.59-1.91-.08.02-.17.05-.26.08-.51.19-1.88,1.24-.77,1.72,2.36.99,4.29,1.57,5.42,4.16Z"/>
      <path d="M249.33,357.14c.2-1.08,3.41-1.66,3.22-.4-1.46,9.77-.75,19.55,1.52,29.04-1.38.09-2.96.75-3.77,1.2-.31.17-.62.35-.94.52-1.79-9.83-1.94-19.96-.03-30.36Z"/>
      <path d="M249.36,387.5c.28,1.53.6,3.06.96,4.58-18.04,9.68-37.32,17.39-56.18,25.29-.22-.57-.43-1.14-.65-1.7,18.53-9.52,37.65-18.1,55.87-28.17Z"/>
      <path d="M226.41,258.6c.89,1.41-2.82,2.51-3.69,1.56-3.58-3.94-6.92-8.16-10.18-12.39.91-1.55,1.69-3.13,2.34-4.69l.21-.16c3.91,5.1,7.88,10.26,11.32,15.68Z"/>
      <path d="M214.69,242.4c.13.17.27.35.4.52l-.21.16c-1.65.44-3.29.88-4.93,1.32.86,1.12,1.72,2.25,2.59,3.37-4.21,7.3-11.01,14.03-19.17,15.75-1.18.24-2.98-.29-1.36-1.44,3.4-2.41,7.06-4.05,10.12-7,3.35-3.22,5.85-7.08,7.64-11.36.54-1.29,3.86-2.71,4.92-1.32Z"/>
      <path d="M209.95,244.4c1.64-.44,3.28-.88,4.93-1.32-.65,1.56-1.43,3.14-2.34,4.69-.87-1.12-1.73-2.25-2.59-3.37Z"/>
      <path d="M213.01,100.72c2.96.57-.23,2.9-1.51,3.29-1.47.45-2.99.76-4.54.99.69-1.57,1.4-3.14,2.13-4.71,1.33.06,2.64.19,3.92.43Z"/>
      <path d="M195.03,100.93c4.56-.02,9.41-.8,14.06-.64-.73,1.57-1.44,3.14-2.13,4.71-4.93.69-10.15.44-14.99.39-4.12-.04-8.44-.05-12.66-.49-.63-1.46-1.3-2.9-2.01-4.32,5.9-.09,11.82.39,17.73.35Z"/>
      <path d="M204.07,446.03c6.03,19.11,13.21,43.97,3.99,63.29-.66,1.39-1.42,2.63-2.25,3.75l-.86-.62c.24-.29.37-.6.33-.93-.27-2.41-.89-4.83-1.71-7.23,1.04-4.1,1.4-8.43,1.56-11.84.99-21.02-7.06-42.06-14.07-61.52-1.4-3.87-2.83-7.73-4.3-11.57l1.54-.6c.19.37,1.28.53,1.84.29,1.33-.56,2.66-1.12,4-1.68,3.57,9.45,6.89,19.01,9.93,28.66Z"/>
      <path d="M204.95,512.45l.86.62c-7.23,9.67-20.51,9.52-32.32,6.47l.4-1.58c.85.12,2.4-.53,2.09-1.12-.31-.58-.61-1.16-.91-1.74,5.67,1.9,11.73,3.09,17.18,2.26,3.39-.52,5.88-2.32,7.7-4.81.12.22.26.44.4.65.72,1.11,3.6.43,4.6-.75Z"/>
      <path d="M205.28,511.52c.04.33-.09.64-.33.93-1,1.18-3.88,1.86-4.6.75-.14-.21-.28-.43-.4-.65,1.72-2.31,2.86-5.22,3.62-8.26.82,2.4,1.44,4.82,1.71,7.23Z"/>
      <path d="M203.57,504.29c-.76,3.04-1.9,5.95-3.62,8.26-3.86-6.33-5.47-14.44-7.73-21.42-.58-1.79,4.58-3.22,5.29-1.42,1.85,4.65,4.37,9.58,6.06,14.58Z"/>
      <path d="M194.14,417.37c-1.34.56-2.67,1.12-4,1.68-.56.24-1.65.08-1.84-.29-.09-.18.03-.4.5-.65,1.56-.82,3.12-1.63,4.69-2.44.22.56.43,1.13.65,1.7Z"/>
      <path d="M193.49,415.67c-1.57.81-3.13,1.62-4.69,2.44-.47.25-.59.47-.5.65l-1.54.6c-6.1-15.9-12.85-31.52-20.28-46.85-1.08-2.23,6.31-4.63,7.56-2.03,7.11,14.79,13.61,29.86,19.45,45.19Z"/>
      <path d="M183.63,213.27c2.65,2.72,3.48,7.39,1.05,11.21-3.72,5.86-13.06,8.71-18.83,4.26-5.61-4.33-5.7-13.19-.1-17.53,4.99-3.86,13.96-4.33,17.75,1.45.14.21.17.42.13.61-1.92-1.97-4.79-2.91-8.09-1.75-2.3-.77-4.87-.35-6.57,1.92-2.33,3.11-1.59,7.94.58,10.92,2.92,4.02,7.81,3.77,10.11-.76.97-1.9,1.14-4.14.28-6.12-1.12-2.59-3.05-3.16-5.41-4.16-1.11-.47.26-1.53.77-1.72.08-.03.16-.06.24-.08,1.51.51,2.9,1.52,3.86,2.87.72,1.03,3.98.12,4.23-1.12Z"/>
      <path d="M182.44,113.26c.68,2.22-5.62,3.94-6.49,1.74-1.57-3.95-3.42-7.77-5.43-11.51l.74-.4c.13.23.45.43,1.04.59,2.27.6,4.62.98,7.01,1.22,1.19,2.71,2.24,5.49,3.13,8.36Z"/>
      <path d="M183.63,213.27c-.25,1.24-3.51,2.15-4.23,1.12-.96-1.35-2.35-2.36-3.86-2.87,3.3-1.16,6.17-.22,8.09,1.75Z"/>
      <path d="M179.94,217.48c.86,1.98.69,4.22-.28,6.12-2.3,4.53-7.19,4.78-10.11.76-2.17-2.98-2.91-7.81-.58-10.92,1.7-2.27,4.27-2.69,6.57-1.92-.08.02-.16.05-.24.08-.51.19-1.88,1.25-.77,1.72,2.36,1,4.29,1.57,5.41,4.16Z"/>
      <path d="M177.3,100.58c.71,1.42,1.38,2.86,2.01,4.32-2.39-.24-4.74-.62-7.01-1.22-.59-.16-.91-.36-1.04-.59-.55-.99,2.78-2.42,3.79-2.46.75-.03,1.5-.05,2.25-.05Z"/>
      <path d="M168.43,84.59c3.09,5.29,6.19,10.54,8.87,15.99-.75,0-1.5.02-2.25.05-1.01.04-4.34,1.47-3.79,2.46l-.74.4c-3.49-6.54-7.47-12.83-11.36-19.13-5.74-9.31-11.32-18.71-16.95-28.07-5.37-8.94-10.8-17.81-16.53-26.53-5.15-7.83-11.09-15-16.56-22.54,1.78-.63,3.43-1.82,1.79-2.85-.74-.46-1.52-.86-2.32-1.21,1.15-.42,2.72-.48,3.3-.05,17.25,12.7,28,33.73,38.78,51.69,5.95,9.91,11.92,19.81,17.76,29.79Z"/>
      <path d="M175.98,516.84c.31.59-1.24,1.24-2.09,1.12-.21-.03-.38-.11-.47-.24-.96-1.48-1.96-2.92-2.97-4.35,1.49.62,3.04,1.2,4.62,1.73.3.58.6,1.16.91,1.74Z"/>
      <path d="M173.89,517.96l-.4,1.58c-4.35-1.12-8.5-2.64-12.08-4.21-27.35-12-43.86-35.93-55.79-62.16.14-.09.27-.18.41-.27,2.94-1.94.47-3.06-1.85-2.95-4.78-10.92-8.83-22.17-12.57-33.07-.62-1.82,4.81-3.38,5.49-1.47,7.51,21.27,15.83,42.53,28.98,61.04,10.23,14.4,23.46,27.24,39.59,34.82,1.51.71,3.11,1.42,4.78,2.1,1.01,1.43,2.01,2.87,2.97,4.35.09.13.26.21.47.24Z"/>
      <path d="M170.28,505.45c1.7,3.17,3.16,6.45,4.79,9.65-1.58-.53-3.13-1.11-4.62-1.73-1.52-2.13-3.05-4.25-4.48-6.45-1.94-2.98-5.11-6.55-5.45-10.16-.12-1.34,2.54-1.77,3.35-1.14,3.03,2.34,4.62,6.51,6.41,9.83Z"/>
      <path d="M134.47,225.73c2.97.77-1.38,2.81-2.56,2.84-14.44.29-29.21-3.59-42.87-7.95-13.44-4.29-26.36-9.91-38.48-17.16-2.6-1.56,3.28-3.99,5.02-3.05,12.41,6.65,25.38,12.32,38.85,16.44,13.17,4.03,26.77,5.46,40.04,8.88Z"/>
      <path d="M131.97,245.85c3.25-.9,3.87,1.71.72,2.68-12.46,3.85-24.72,8.4-36.67,13.64-5.78,2.53-11.47,5.25-17.11,8.08-5.3,2.65-10.48,5.94-16.13,7.79-1.15.38-3.86-.05-2.3-1.63,4.19-4.22,10.64-6.74,15.89-9.4,5.79-2.92,11.71-5.59,17.69-8.1,12.35-5.19,25.01-9.48,37.91-13.06Z"/>
      <path d="M130.3,239.17c3.92.17-.05,3.37-2.25,3.28-24.19-.95-48.07.63-72.21,1.82-3.15.16-.27-2.52,1.3-2.75,24.05-3.6,48.92-3.46,73.16-2.35Z"/>
      <path d="M122.54,81.41c1.45,5.05,2.42,10.83.31,15.85-4.4,10.42-19.31,12.51-29.2,11.48-.32-.03-.57-.09-.77-.16.31-.68.57-1.38.79-2.1.41-.22.86-.37,1.24-.42,9.78-1.21,22.89-.71,22.87-13.97-.02-7.65-3.55-15.72-7.26-22.26-1.61-2.82-8.79-12.93-11.3-6.46-1.62,4.15-1.47,9.31-1.96,13.7-.62,5.61-1.25,11.23-1.87,16.84-.46,4.15-.49,8.57-1.72,12.57-1.15.61-2.05,1.67-.79,2.1-.1.24-.22.48-.34.72-.64,1.24-4.68,2.45-5.3.68-1.31-3.73-.12-8.28.32-12.16.44-3.96.88-7.92,1.32-11.89.77-6.96.37-15.6,3.03-22.16,1.7-4.21,5.59-6.85,10.1-7.25,6.09-.53,10.71,3.57,13.88,8.37,3.24,4.91,5.04,10.9,6.65,16.52Z"/>
      <path d="M117.78,92.09c.02,13.26-13.09,12.76-22.87,13.97-.38.05-.83.2-1.24.42,1.23-4,1.26-8.42,1.72-12.57.62-5.61,1.25-11.23,1.87-16.84.49-4.39.34-9.55,1.96-13.7,2.51-6.47,9.69,3.64,11.3,6.46,3.71,6.54,7.24,14.61,7.26,22.26Z"/>
      <path d="M110.91,4.37c1.64,1.03-.01,2.22-1.79,2.85-.55-.75-1.09-1.5-1.63-2.26-.57-.81.11-1.44,1.1-1.8.8.35,1.58.75,2.32,1.21Z"/>
      <path d="M107.49,4.96c.54.76,1.08,1.51,1.63,2.26-1.03.34-2.09.51-2.61.36-7.12-2.13-14.47-1.45-20.21,3.68-3.06,2.74-4.67,6.92-6.23,10.63-3.81,9.07-6.64,18.57-9.35,28.02-3.02,10.55-5.99,21.17-7.71,32.03-1.87,11.89-2.77,23.99-3.78,35.98-.1,1.16-2.22,2.05-3.85,2.03.27-.35.55-.7.83-1.05,1.04-1.28-.8-1.61-2.7-1.35.25-13.44-.2-26.81,2.06-40.12,2.03-11.92,5.43-23.64,8.91-35.21,2.94-9.76,5.74-21.79,12.32-29.88,6.62-8.13,21.54-13.51,31.79-9.18-.99.36-1.67.99-1.1,1.8Z"/>
      <path d="M104.18,449.95c2.32-.11,4.79,1.01,1.85,2.95-.14.09-.27.18-.41.27-.49-1.07-.97-2.14-1.44-3.22Z"/>
      <path d="M104.18,449.95c.47,1.08.95,2.15,1.44,3.22-7.71,5.04-16.36,8.98-24.55,13.19-8.15,4.19-16.36,8.26-24.62,12.22-6.77,3.24-13.59,6.38-20.44,9.42l-.33-.74c.54-.24.96-.59,1.02-1,.13-.93.23-1.86.31-2.8,5.26-2.44,10.5-4.93,15.72-7.45,8.52-4.12,16.97-8.37,25.36-12.75,8.1-4.23,15.98-9.07,24.26-12.92.51-.24,1.17-.36,1.83-.39Z"/>
      <path d="M93.67,106.48c-.22.72-.48,1.42-.79,2.1-1.26-.43-.36-1.49.79-2.1Z"/>
      <path d="M58.33,267.61c1.02.09,1.7.5,1.43,1.32-11.33,34.83-19.08,70.84-22.67,107.31-1.82,18.61-2.62,37.35-2.32,56.04.15,8.87.54,17.73,1.18,26.58.57,8,1.73,16.5,1.06,24.6-1.49.7-2.99,1.39-4.49,2.07-3.17-8.24-3.61-17.88-4.24-26.56-.66-9.14-1.05-18.31-1.19-27.48-.26-17.82.49-35.62,2.28-53.35,3.71-36.87,11.87-73.08,23.7-108.17.4.24.81.47,1.23.69,1.13.59,6.23-.8,4.67-2.38-.22-.22-.44-.45-.64-.67Z"/>
      <path d="M58.97,268.28c1.56,1.58-3.54,2.97-4.67,2.38-.42-.22-.83-.45-1.23-.69.02-.07.05-.14.07-.21.48-1.42,3.37-2.29,5.19-2.15.2.22.42.45.64.67Z"/>
      <path d="M58.33,267.61c-1.82-.14-4.71.73-5.19,2.15-.02.07-.05.14-.07.21-10.01-5.86-16.98-16.81-20.35-27.7-4.65-15.04-7.16-30.92-7.5-46.66-.6-27.75,7.11-55.42,25.24-76.84.51-.6,1.79-1.04,3.05-1.22,0,.36-.01.73-.02,1.09-.02.92.84,1.3,1.89,1.31-16.45,20.76-22.14,48.15-21.19,74.21.54,14.79,3.14,29.61,6.79,43.94,2.86,11.24,9.31,21.22,17.35,29.51Z"/>
      <path d="M53.51,117.55c1.9-.26,3.74.07,2.7,1.35-.28.35-.56.7-.83,1.05-1.05-.01-1.91-.39-1.89-1.31.01-.36.02-.73.02-1.09Z"/>
      <path d="M37.01,483.46c-.08.94-.18,1.87-.31,2.8-.06.41-.48.76-1.02,1-.95.4-2.26.43-2.57-.29-.21-.47-.4-.95-.59-1.44,1.5-.68,3-1.37,4.49-2.07Z"/>
      <path d="M35.68,487.26l.33.74c-10.49,4.68-21.06,9.13-31.72,13.41-2.68,1.08-6.17-.82-2.35-2.43,10.26-4.31,20.46-8.8,30.58-13.45.19.49.38.97.59,1.44.31.72,1.62.69,2.57.29Z"/>
    </g>
    <g>
      <path d="M318.15,494.7c-1.72.41-3.38,1.05-4.86,2.03-1.03.69-3.09,2-3.15,3.37-.02.4.7.21.88.09,1.1-.73,1.89-1.84,2.93-2.66,1.29-1.02,2.79-1.75,4.38-2.17.81-.21.63-.86-.18-.67h0Z"/>
      <path d="M266.16,524.93c-1.67.51-3.25,1.2-4.7,2.17-1.17.79-2.78,1.84-3.25,3.23-.19.56,1.09.26,1.27.13,1.11-.77,1.99-1.8,3.06-2.62,1.22-.94,2.61-1.65,4.04-2.2.86-.33.31-.94-.42-.72h0Z"/>
      <g>
        <path d="M362.85,522.97c-1.15,1.14-2.79,2.26-4.32,1.01-.77-.62-1.38-1.83-1.94-2.63-1.51-2.14-2.86-4.36-4.09-6.66l-2.16,1.09c1.86.27,3.74.66,5.62.58.26-.01,1.95-.6,1.11-.98-1.56-.7-3.41-.79-5.09-1.05-.39-.06-2.59.29-2.16,1.09,1.02,1.89,2.12,3.73,3.34,5.5,1.07,1.56,2.32,3.76,4,4.73,2.66,1.53,5.24-.6,6.88-2.53.4-.47-.95-.37-1.19-.13h0Z"/>
        <path d="M364.6,517.2c-.79-.59-1.68-.95-2.66-1.04s-2.17,0-2.84.76c-.21.24.07.43.27.48.58.14,1.16-.1,1.75-.06.68.04,1.27.32,1.83.69.47.32,2.17-.45,1.65-.84h0Z"/>
        <path d="M359.24,514.77c.69-.61,1.16-1.47,1.5-2.32.26-.65.86-1.83.26-2.39-.36-.34-1.15-.1-1.47.19-.64.58-.71,1.43-1,2.22-.27.74-.78,1.5-.9,2.26s1.37.25,1.61.03h0Z"/>
        <path d="M345.67,488.06c-.68-1.19-1.31-2.4-1.89-3.64-.52-1.12-.9-2.52-1.92-3.26-.31-.23-1.14-.1-1.24.33-.31,1.28.58,2.62,1.15,3.73.62,1.19,1.29,2.35,2,3.49.33.53,2.19-.13,1.9-.65h0Z"/>
        <path d="M344.76,488.33c-.87.68-6.14,4.91-7.15,4.29-.65-.4-1.04-2.6-1.26-3.26-.2-.6-.77-3.35-1.33-2.96l-1.62.21.26.09c.54.18,1.48.02,1.71-.58l.08-.2c.1-.27-.24-.44-.44-.48l-.15-.03c-.69-.14-1.83.14-2.1.87-.49,1.32.98,4.11,1.47,5.32s1.05,2.53,2.54,2.6c1.36.07,2.74-.91,3.85-1.55,1.99-1.16,3.86-2.52,5.62-4.01.82-.7-1.03-.65-1.48-.3h0Z"/>
        <path d="M340.23,481.67c-1.17.64-2.27,1.38-3.32,2.19-.85.66-2.08,1.45-2.46,2.51-.23.64,1.24.26,1.43.15.99-.57,1.77-1.46,2.65-2.17.94-.76,1.94-1.44,2.96-2.08.33-.21.53-.52.18-.79s-1.1.01-1.43.19h0Z"/>
        <path d="M342.27,492.53l.1.96,1.56-.42c-.78-2.69-2.29-5.21-3.53-7.71-1.14-2.29-2.2-4.66-3.69-6.75-.37-.52-2.34.02-2.1.72.93,2.67,2.5,5.16,3.86,7.63,1.24,2.23,2.36,4.62,3.95,6.63.35.44,1.85-.18,1.45-.61l-.69-.75c-.2-.22-.95-.02-.92.31h0Z"/>
        <path d="M322.15,500.57c-.18-1.31-.49-2.51-1.04-3.72-.46-1-.93-2.23-1.99-2.65-.29-.11-.99-.02-1.07.36-.21.99.82,2,1.3,2.82.66,1.13,1.32,2.27,1.95,3.42.15.26.89.09.85-.23h0Z"/>
        <path d="M322.2,500.49c-.8.58-1.56,1.2-2.33,1.83-1.45,1.2-4.33,2.98-5.85,1.04-1.26-1.62-.86-4.09-1.81-5.88l-2.24.94.75.53c.39.28,1.55.1,1.52-.52-.02-.32-.03-.63-.03-.95-.02-.81-2.85-.25-2.5.67,1.1,2.9,1,7.04,4.94,7.42s6.1-2.62,8.74-4.7c.73-.57-.81-.66-1.2-.39h0Z"/>
        <path d="M319.94,505.47c-.69-2.31-1.66-4.53-2.6-6.74-.84-1.97-1.52-4.17-2.93-5.8-.38-.44-1.93-.04-1.83.63.34,2.31,1.88,4.59,2.95,6.65,1,1.93,1.99,3.87,3.17,5.69.21.32,1.37,0,1.24-.43h0Z"/>
        <path d="M296.17,515.75c-1.17-2.1-1.94-4.45-3.16-6.51l-2.29.96c.19.18.39.35.6.51.45.37,1.88.09,1.83-.63-.01-.23-.03-.46-.06-.69-.09-.82-2.74-.24-2.46.66.68,2.24,2.33,4.42,3.65,6.34.34.5,2.18-.12,1.88-.64h0Z"/>
        <path d="M294.87,515.19c-1.28,1.83-3.65,4.69-5.98,5.26-.84.21-.92.19-1.5-.7-.31-.47-.52-1.06-.75-1.57-.55-1.22-.8-2.3-1.74-3.25-.37-.38-1.8-.11-1.85.5-.16,1.87,1.15,4.34,2.27,5.85.83,1.13,1.69,1.19,3.02.76,3.35-1.08,6.23-3.88,8.03-6.82.4-.66-1.21-.44-1.5-.03h0Z"/>
        <path d="M290.76,508.37l-4.65,4.15c-1.17,1.04-2.87,2.09-3.51,3.54-.23.52,1.04.19,1.17.12,1.61-.84,2.88-2.32,4.2-3.56l4.23-3.96c.76-.71-1-.67-1.43-.29h0Z"/>
        <path d="M294.2,521.52c-2.41-4.83-4.72-9.79-7.72-14.29l-1.84.93,1.02.37c.23.08,1.47-.05,1.23-.52l-.33-.65c-.35-.69-2.41-.12-2.14.57,2.03,5.08,5.26,9.67,8.55,14.01.23.3,1.41-.05,1.23-.42h0Z"/>
        <path d="M334.02,504.17c-1.57-3.65-3.63-7.09-5.58-10.54-1.73-3.07-3.33-6.46-5.7-9.08-.27-.3-1.53-.02-1.38.47,1.07,3.32,3.27,6.31,5.02,9.31,2.03,3.46,3.95,7.03,6.25,10.31.24.35,1.56-.03,1.38-.47h0Z"/>
        <path d="M306.26,520.17c-2.81-6.61-5.43-14.42-9.81-20.17-.21-.28-1.29,0-1.16.4,1.1,3.48,3.21,6.75,4.82,10.02s3.25,6.71,4.8,10.11c.21.46,1.54.06,1.36-.36h0Z"/>
        <g>
          <path d="M209.86,473.22c12.58-4.34,24.77-10.22,37.02-15.43,5.82-2.48,11.65-4.96,17.47-7.45s12.46-4.69,17.83-8.31c3.22-2.17-.36-3.41-2.67-2.82-6.16,1.57-11.94,4.54-17.74,7.09-6.37,2.8-12.74,5.62-19.11,8.43-11.97,5.29-24.41,10.09-35.95,16.28-3.58,1.92,1.37,2.83,3.17,2.21h0Z"/>
          <path d="M191.36,520.06c.81,8.05,3.59,15.97,6.13,23.62s5.34,15.39,8.21,23.01c5.73,15.25,12.1,30.26,18.94,45.04,3.42,7.39,6.97,14.73,10.64,22,2.92,5.79,5.9,11.97,10.62,16.54,9.69,9.38,23.79,8.08,35.63,4.07,14.63-4.96,28.33-13.11,41.35-21.3,14.06-8.84,27.81-18.19,41.66-27.35,14.17-9.37,28.35-18.73,42.53-28.07,5.45-3.59,11.14-7.35,13.8-13.57s1.93-12.66-.35-18.56c-2.87-7.44-7.75-14.15-12.12-20.76-4.9-7.42-9.97-14.72-15.2-21.91-10.65-14.64-22.12-28.68-34.11-42.24-2.51-2.84-13.02,1.1-10.2,4.3,19.05,21.64,36.64,44.61,52.5,68.69,6.67,10.12,17.12,26.24,5.44,36.85-5.31,4.82-12.09,8.44-18.04,12.41-6.51,4.34-13.04,8.66-19.57,12.99-24.54,16.28-48.69,34.26-75.02,47.59-11.88,6.01-28.21,14.39-39.76,3.27-4.45-4.29-7.26-9.94-10.02-15.39-3.4-6.71-6.69-13.47-9.87-20.29-6.9-14.77-13.25-29.78-19.21-44.95-2.98-7.59-5.83-15.23-8.55-22.91-2.91-8.24-5.46-16.94-9.61-24.63-1-1.84-6.03-.63-5.81,1.56h0Z"/>
          <path d="M381.04,574.91c11.31-3.67,21.74-11.12,14.39-24.05-3.06-5.39-7.85-12.24-13.89-14.55-4.87-1.86-9.28.3-13.56,2.55-16.94,8.93-33.83,17.92-50.75,26.89-8.46,4.48-16.92,8.96-25.37,13.44-8.21,4.35-16.81,8.31-24.7,13.22-5.29,3.28-9.68,7.92-8.73,14.6.7,4.89,3.54,9.4,5.74,13.73,2.56,5.04,5.08,10.11,7.75,15.11.26.49.97.4,1.42.29,19.35-4.58,36.2-15.06,52.79-25.61,19.84-12.61,39.85-24.99,59.5-37.88,1.48-.97-.78-1.28-1.61-.77-18.89,11.65-37.49,23.8-56.21,35.72-17.24,10.98-34.63,22.59-54.81,27.28l1.42.29c-4.06-8.39-9.75-16.8-12.6-25.69-3.29-10.27,4.56-15.14,12.41-19.32,16.59-8.84,33.18-17.65,49.78-26.47,8.44-4.49,16.88-8.98,25.32-13.47,4.08-2.17,8.15-4.33,12.23-6.5,4.64-2.47,11.67-7.84,17.04-6.64,7.19,1.6,14.57,12.46,16.48,18.95,2.99,10.17-6.73,14.96-14.55,17.98-1.08.42-.4,1.2.53.9h0Z"/>
          <path d="M364.78,530.32c6.82,1.29,11.38-5.5,9.85-11.79s-6.96-15.76-14.73-13.51c-5.98,1.72-11.86,5.63-17.44,8.39-6.51,3.23-13.03,6.46-19.54,9.68-12.14,6.02-24.28,12.04-36.42,18.04s-24.3,12-36.44,18.03c-3.31,1.65-7.24,3.22-9.44,6.37-2.89,4.12-1.41,9.02.61,13.19,3.63,7.49,8.6,13.94,17.71,11.5,4.87-1.31,9.41-4.12,13.87-6.41,5.96-3.06,11.89-6.16,17.81-9.3,26.19-13.91,51.92-28.66,77.18-44.19,1.71-1.05-.88-1.47-1.84-.88-16.58,10.17-33.34,20.03-50.31,29.53-17.26,9.66-34.66,19.84-52.67,28.03-3.96,1.8-9.19,2.95-12.79-.23-1.23-1.08-2.19-2.44-3.08-3.8-2.48-3.78-5.49-8.8-4.98-13.49.68-6.23,7.79-8.43,12.67-10.86s9.46-4.71,14.19-7.06c17.74-8.83,35.48-17.67,53.22-26.49,10.35-5.15,20.7-10.29,31.06-15.44,3.19-1.58,5.25-3.02,8.87-2.68s4.58,1.99,6.48,4.96c1.44,2.25,2.94,4.65,3.56,7.29.91,3.9-.18,11.01-6.31,10.18-.52-.07-2.08.76-1.07.95h0Z"/>
          <path d="M343.54,501.06c3.36-1.81,8.94-4.76,10.77-8.32s-2.23-8.53-4.19-11.54c-1.84-2.83-3.89-6.32-7.47-6.98-3.93-.73-7.88,2.03-11.18,3.72-12.27,6.28-24.54,12.57-36.8,18.85-11.36,5.82-22.97,11.35-33.83,18.1-10.85,6.74-20.4,15.07-32.21,20.22-3.06,1.33-9.76,2.81-11.31,6.25s3.53,8.08,5.33,10.22c2.16,2.57,3.86,4.61,7.39,4.32,5.07-.41,10.54-2.85,15.32-4.52,10.58-3.7,20.8-8.35,30.78-13.44,23.68-12.09,46.36-26.09,69.88-38.51,1.39-.73-.48-1.26-1.28-.89-34.39,15.59-64.69,39.06-100.59,51.58-3.97,1.38-12.19,5.52-16.21,3.04-1.52-.94-2.89-3.17-4-4.57-2.48-3.13-5.07-6.18,0-9.68,3.21-2.21,7.64-3.28,11.12-5.06,4.75-2.42,9.14-5.41,13.47-8.5,16.78-11.96,34.78-21.05,53.09-30.43,10.51-5.39,21.01-10.8,31.53-16.17,4.14-2.11,8.22-4.4,11.81-.29,1.37,1.57,2.49,3.44,3.58,5.21,2.41,3.94,5,6.73,1.47,10.95-1.99,2.38-5.13,4.23-7.72,5.85-1.19.74.62.95,1.26.6h0Z"/>
          <path d="M322.96,471.75c-20.05,9.87-40.85,17.93-61.03,27.49-9.72,4.6-19.14,9.78-28.33,15.35-4.92,2.98-10.11,7.09-15.73,8.58-.95.53-1.96.64-3.01.35-1.25.33-2.03-.12-2.32-1.34-1.11-1.12-1.76-3.08-2.45-4.51-1.36-2.79-2.5-5.67-3.54-8.59-.38-1.07-3.43-.19-3.07.82,1.14,3.22,2.42,6.37,3.96,9.43.87,1.73,2.03,4.95,3.89,6,2.41,1.36,6.09-.22,8.38-1.06,5.37-1.98,10.13-5.31,14.98-8.27,5.89-3.6,11.87-7.06,17.97-10.29,23.13-12.28,48.7-19.87,71.21-33.31.95-.57-.34-.91-.91-.63h0Z"/>
          <path d="M292.12,452.33c-14.31,5.71-28.17,12.72-42.15,19.19s-27.99,12.85-41.91,19.44c-1.89.89-.16,1.85,1.19,1.23,14.3-6.53,28.51-13.27,42.75-19.91,13.65-6.36,27.64-12.29,40.91-19.42.86-.46-.31-.73-.78-.55h0Z"/>
          <path d="M387.53,555.98c.37-1.19.06-2.5-.1-3.73-.18-1.38-.38-2.75-.56-4.13-.13-.92-2.01-.12-2.37.14-1.29.95-3.43,3.54-2.08,5.13.34.4,1.31.05,1.56-.31.47-.68.58-1.39.89-2.15.38-.92.96-1.62,1.73-2.24l-2.37.14c.3,1.34.6,2.69.91,4.03.27,1.18.43,2.47,1.21,3.43.25.31,1.08.02,1.18-.32h0Z"/>
          <path d="M384.57,555.6c-.64-4.02-1.14-8.07-1.65-12.11-.1-.78-1.86-.19-2.15.12-1.38,1.48-3,3.22-3.37,5.28-.14.78,1.48.18,1.7-.09,1.27-1.57,2.19-3.3,3.59-4.79l-2.15.12c.55,4.02,1.42,7.97,2.43,11.9.14.56,1.71.15,1.61-.43h0Z"/>
          <path d="M377.35,540.89c-.9.64-1.65,1.43-2.37,2.27-.68.79-1.32,1.62-1.55,2.65-.17.77,1.51.3,1.76.04.71-.75,1.27-1.58,1.89-2.4s1.29-1.46,1.91-2.22c.24-.3-.07-.53-.34-.6-.4-.1-.98.02-1.31.26h0Z"/>
          <path d="M381.49,558.03c-1.31.91-2.62,1.79-3.84,2.81-.78.65-2.79,1.88-2.8,2.99,0,.5.8.34,1.08.22,1.32-.58,2.21-1.75,3.26-2.71,1.1-1.01,2.2-2.05,3.39-2.97.66-.51-.73-.59-1.07-.35h0Z"/>
          <path d="M380.36,564.33c.26-2.29.06-4.64-.17-6.92-.15-1.47-.18-3.44-1.93-3.87-.88-.21-1.99.1-2.61.75-.51.53-.6,1.27-.83,1.93-.35,1.02-1.05,2-1.08,3.09-.02.64,1.14.25,1.39.03.83-.72,1.22-1.41,1.62-2.43.44-1.12.41-3.11,1.12-.78.82,2.69.63,5.7,1.25,8.45.09.42,1.2.12,1.24-.24h0Z"/>
          <path d="M378.66,556.87c-.82.76-2.26,2.05-3.38,1.33-.74-.48-1.61-2.54-2.08-3.29-.65-1.03-1.32-2.05-1.95-3.1-.55-.91-.86-1.49.25-2.2.34-.22,1.31-.46,1.74-.64.65-.26.96-1.08,0-1.06-1.54.03-3.99.7-4.93,2.06-.53.77-.3,1.39.18,2.14.9,1.38,1.93,2.67,2.9,4.01,1.04,1.43,2.07,4,4.21,3.66,1.68-.26,3.14-1.57,4.22-2.78.4-.45-.91-.34-1.15-.12h0Z"/>
          <path d="M375.86,552.87c.09-.91.36-1.74.69-2.58.23-.58.91-1.38.48-1.95-.23-.3-.88-.06-1.12.07-1.63.85-1.69,3.17-1.68,4.78,0,.51,1.58.17,1.63-.32h0Z"/>
          <path d="M370.08,555.34c-1.45-.68-2.85-1.82-4.47-1.98-.27-.03-1.31.23-1.14.69.26.73,1.33,1.01,2.01,1.23.94.31,1.89.48,2.87.61.2.03,1.23-.31.74-.54h0Z"/>
          <path d="M362.83,572.77c-.12-2.21-.39-4.4-.77-6.58-.2-1.16-.17-2.73-1.61-2.9-1.85-.21-5.53,2.72-4.51,4.64.24.46,1.24.18,1.46-.19.51-.86.92-1.69,1.67-2.39l.4-.34c.73-.56.82-.62.27-.19-.35.11-.44.32-.26.62.08.34.15.68.23,1.02.48,2.26.84,4.55,1.17,6.83.1.67,1.99.19,1.95-.52h0Z"/>
          <path d="M358.4,573.08c-.09-2.38-.1-4.76-.19-7.14-.05-1.3.44-3.65-.79-4.44-.51-.33-1.5.03-1.9.38-1.26,1.1-2.44,3.14-2.81,4.78-.17.74,1.45.28,1.68.04,1.24-1.28,1.78-3.24,3.04-4.42l-1.9.38c.71.41.6,4.47.67,5.18.18,1.89.45,3.78.65,5.67.05.53,1.58.16,1.56-.42h0Z"/>
          <path d="M355.8,556.26c-1.16.48-2.26,1.1-3.24,1.89-.75.61-1.9,1.63-1.92,2.68,0,.7,1.22.25,1.5.03,1.58-1.22,2.63-2.85,4.51-3.71.3-.14.88-.48.58-.87s-1.11-.16-1.44-.02h0Z"/>
          <path d="M353.89,573.96c-2.26,1.47-4.56,3.06-6.46,4.97-.12.12-.3.32-.24.52l.07.21c.1.32.68.25.9.19,1.35-.39,2.22-1.45,3.26-2.35,1.2-1.04,2.46-2.01,3.76-2.92,1.16-.81-.63-1.05-1.3-.62h0Z"/>
          <path d="M354.28,578.97c-.23-2.57-.47-5.13-.74-7.7-.14-1.29.18-3.72-1.59-3.88-2.33-.21-5.69,3.4-5.33,5.6.11.67,1.47.04,1.69-.22.7-.82,1.07-1.8,1.7-2.67,1.45-2,1.25-.22,1.47,1.28.4,2.67.83,5.33,1.27,7.99.09.52,1.58.15,1.53-.41h0Z"/>
          <path d="M351.79,571.52l-1.49,1.17-.83-.68c-.56-.62-.83-1.38-1.12-2.13-.44-1.15-.85-2.3-1.39-3.41-.39-.81-.83-1.59-1.3-2.35-.62-.99-1.5-1.19.06-1.72,1.16-.39.97-.34,2.11-.22.29.03,1.78-.44,1.26-.92-1.57-1.45-5.02-1.02-6.56.38-.55.5-.79.88-.64,1.61.13.63.96,1.39,1.3,1.91.58.88,1.12,1.8,1.6,2.74,1.13,2.22,1.88,5.43,4.72,6.01,1.78.36,3.92-.63,3.97-2.6.02-.69-1.63-.35-1.68.21h0Z"/>
          <path d="M350.89,565.56c.63-.61,1.43-1.54,1.35-2.48-.02-.18-.3-.27-.43-.31l-.1-.03.34.24c-.07-.13-.13-.23-.23-.34-.23-.27-.9-.07-1.1.14-.13.14-.25.27-.37.42l.47-.34c-.67.3-.8.67-1.1,1.29-.21.44-.45.84-.77,1.2s.2.61.48.65c.48.05,1.11-.09,1.46-.44h0Z"/>
          <path d="M343.77,569.23c-1.08-.66-2.13-1.82-3.45-1.86-.43-.02-1.42.23-1.36.82s.98.84,1.43,1.04c.64.29,1.28.58,1.9.91.51.27,2.24-.42,1.47-.9h0Z"/>
          <path d="M334.75,585.72c.13-2.52.02-5.03-.24-7.54-.07-.65-1.47-.19-1.73-.03-1.87,1.12-4.08,3.31-3.61,5.71.11.58,1.46.13,1.64-.21.94-1.8,1.58-3.64,3.3-4.87l-1.73-.03c.54,2.36.75,4.76.72,7.17,0,.68,1.64.34,1.66-.21h0Z"/>
          <path d="M329.03,584.36l-.07.12c-.04.07-.09.21,0,.28l.1.07c.41.29,1.04.07,1.35-.27.86-.95.43-3.32.39-4.53-.06-2.08-.22-4.16-.39-6.23-.07-.87-1.97-.13-2.29.13-1.35,1.13-3.17,2.84-3.04,4.74.05.68,1.51,0,1.7-.22,1.21-1.36,1.95-2.88,3.37-4.1l-2.29.13c.4,3.29.23,7.07,1.14,10.26l1.17-.59.05.06c-.15-.41-1.03-.11-1.2.15h0Z"/>
          <path d="M327,570.16c-1.6.85-3.21,2.17-3.87,3.89-.12.31.43.35.58.34.35-.01.71-.16.94-.43,1.06-1.25,2.06-2.48,3.38-3.48.23-.17.15-.39-.07-.49-.29-.13-.7.02-.96.16h0Z"/>
          <path d="M327.1,590.38c-1.56.55-3.03,1.42-4.47,2.22-.89.49-2.82,1.08-3.09,2.17-.07.3.42.3.58.29,1.43-.14,2.62-1.11,3.82-1.83,1.28-.77,2.7-1.51,3.78-2.55.42-.41-.43-.38-.63-.3h0Z"/>
          <path d="M325.37,595.92c.14-3,.32-5.99.45-8.98.06-1.48.54-3.4-1.13-4.07-2.78-1.12-6.71,2.54-6.91,5.09-.05.66,1.23.27,1.47.03.72-.71,1.24-1.48,1.88-2.27l.98-1.09,1.52,1.59c.17.37-.01,1.77-.01,2.06,0,2.66.04,5.32.04,7.98,0,.52,1.69.2,1.71-.34h0Z"/>
          <path d="M326.05,586.28c-1.65,1.11-3.82,2.48-5.65.97-.84-.69-1.36-2.51-1.79-3.47-.48-1.07-.97-2.13-1.44-3.21-.27-.62-.79-1.35-.71-2.05-.28-.7.05-1.01,1-.93.62-.47,1.2-.47,1.75,0,.31.16,1.98-.12,1.66-.7-1-1.81-3.41-1.85-5.1-.93-2.95,1.61-1.61,4.08-.42,6.44,1.05,2.06,2.19,5.85,4.69,6.65s4.91-1.17,6.67-2.46c.59-.43-.33-.54-.66-.32h0Z"/>
          <path d="M322.22,580.79c.27-.5.58-.96.88-1.44.24-.39.67-.9.67-1.37,0-.83-1.49-.33-1.83-.04-.83.72-1.08,1.94-1.43,2.94-.22.63,1.49.31,1.7-.09h0Z"/>
          <path d="M315.41,583c-1.25-.6-2.38-1.56-3.8-1.66-.37-.02-1.47.29-1.14.83.31.51,1.05.68,1.59.85.71.23,1.42.45,2.11.73.35.14.8.05,1.11-.15.21-.13.48-.45.14-.61h0Z"/>
          <path d="M307.32,604.05c-.35-3.08-.35-6.25.19-9.31.17-.94-1.77-.32-2.08-.04-1.42,1.31-3.26,3.78-2.3,5.81.19.4,1.07.15,1.25-.16,1.04-1.78,1.47-3.69,2.91-5.27l-2.08-.04c-.22,3.23,0,6.22.96,9.33.12.4,1.2.1,1.15-.31h0Z"/>
          <path d="M305.26,603.29c-.48-3.59.06-7.25.51-10.82.14-1.08-2-.39-2.37-.05-1.49,1.38-3.31,3.32-3.54,5.43-.1.96,1.81.28,2.1-.11,1.22-1.67,2.05-3.39,3.55-4.88l-2.37-.05c-.23,3.73-.25,7.26.46,10.94.11.57,1.75.16,1.66-.45h0Z"/>
          <path d="M302.26,587.64c-1.95,1.14-4.08,2.88-4.59,5.2-.16.74,1.44.18,1.66-.09,1.27-1.63,2.42-3.34,4.15-4.53.29-.2.54-.51.17-.76s-1.06,0-1.38.18h0Z"/>
          <path d="M302.38,603.18c-1.86,1.26-3.74,2.49-5.59,3.75-1.45.99-3.3,1.89-4.36,3.3-.49.65.98.49,1.22.4,1.89-.79,3.53-2.24,5.18-3.44s3.23-2.4,4.86-3.59c.81-.59-.88-.71-1.3-.42h0Z"/>
          <path d="M299.96,609.91c.78-4.03,1.27-8.08,1.69-12.16.07-.67-1.02-.58-1.39-.46-2.69.82-6.76,2.69-7.46,5.73-.18.79,1.5.25,1.74.04,1.98-1.79,3.39-3.68,6.04-4.53l-1.39-.46c-.19,4.01-.48,8.02-.64,12.03-.02.58,1.32.28,1.41-.18h0Z"/>
          <path d="M300.66,601.87c-1.07.61-2.77,1.58-4.04.96-.69-.34-1.03-1.01-1.34-1.67-.61-1.28-1.07-2.66-1.61-3.98-.42-1.03-.83-2.05-1.15-3.11-.57-.19-.6-.26-.09-.19.36.01.71.03,1.07.04.62.01,1.13-.01,1.75-.1.44-.06,1.65-.71.69-1.01-1.47-.47-4.18-.83-5.4.43-1.5,1.53.8,4.57,1.48,6.04.87,1.89,1.51,4.24,3.85,4.63,2.01.34,3.72-.68,5.31-1.77.49-.33-.26-.4-.53-.25h0Z"/>
          <path d="M297.4,596.89c.28-.43.56-.85.83-1.28.22-.35.53-.79.42-1.22-.12-.47-1.08-.19-1.32-.02-.86.61-1.26,1.59-1.75,2.49-.21.39.19.56.53.57.42.01,1.04-.15,1.29-.53h0Z"/>
          <path d="M291.69,598.92c-.59-.02-1.1-.29-1.52-.7-.2-.2-.39-.42-.55-.66-.24-.37-.29-.48-.76-.58s-1.1.09-1.39.47l-.12.15c-.07.1-.1.2-.08.32.75,1.34,2.26,1.99,3.77,1.92.35-.02.88-.1,1.08-.44s-.16-.47-.44-.48h0Z"/>
          <path d="M284.51,617.95c-.25-2.72-.47-5.44-.79-8.16-.09-.76-1.84-.19-2.13.12-1.53,1.67-2.98,3.85-2.39,6.22.1.39.99.1,1.11-.14,1.03-2.03,1.81-4.12,3.32-5.86l-2.28.29c.42,2.68.92,5.33,1.4,8,.11.6,1.81.17,1.75-.47h0Z"/>
          <path d="M281.01,618.64c.87-3.37.41-7.36.11-10.78-.09-.97-2.2-.15-2.55.15-.84.69-5.11,4.34-3.84,5.59.48.47,2.25.14,2.33-.62l-.74-.53.74.53c.07-.68,1.04-1.66,1.44-2.16.7-.86,1.49-1.62,2.33-2.34l-2.55.15c.56,3.34.52,7.03,1.5,10.27.13.43,1.14.1,1.22-.24h0Z"/>
          <path d="M279.34,601.48c-1.82.34-4.27,1.49-4.46,3.58-.07.73,1.39.22,1.61-.09.74-1.02,1.59-2.23,2.85-2.61.23-.07.76-.26.73-.59s-.49-.34-.73-.3h0Z"/>
          <path d="M277.08,618.57c-1.72.65-3.35,1.66-4.94,2.56-.48.27-2.65,1.41-1.35,2.07.44.22,1.38.02,1.63-.44.43-.78,1.93-1.34,2.68-1.8.98-.6,2.03-1.18,2.88-1.96.62-.56-.61-.54-.9-.43h0Z"/>
          <path d="M275.82,623.87c.06-3,.31-6.01.44-9.01.06-1.31.69-3.39-1.01-3.7-2.29-.42-6.5,3.34-5.8,5.62.14.45,1.05.14,1.27-.07.78-.77,1.23-1.66,1.92-2.5,1.43-1.78,1.39-1.33,1.45.62.1,3.1.34,6.22.38,9.32,0,.42,1.35.16,1.36-.27h0Z"/>
          <path d="M276.06,616.15c-1.07.08-2.47.62-3.44-.04-.78-.53-1.19-2.71-1.51-3.57-.4-1.09-.81-2.17-1.21-3.26-.07-.19-.8-1.64-.67-1.81.06-.08,1.88.04,2.18.04.33,0,1.88-.5,1.11-.98-1.28-.8-3.61-.46-4.9.24-1.8.97-.27,2.81.33,4.24.73,1.74,1.36,4.81,2.94,6s3.39-.07,5.04-.23c.56-.05.95-.69.16-.63h0Z"/>
          <path d="M274.99,611.09c.77-.65,1.58-1.55,1.87-2.54.2-.69-2.16-.56-2.06.4.02.17-.04.35-.07.52-.09.56,1.08.23,1.27.03.21-.23.41-.45.65-.65l-1.78-.19c-.38.79-.68,1.52-1.32,2.14-.27.26-.2.55.17.64.42.1.95-.07,1.27-.34h0Z"/>
          <path d="M269.14,613.61c-.84-.38-1.57-.85-2.23-1.49-.61-.6-.99-1.44-1.86-1.63-.43-.09-1.16.09-1.33.55l-.08.23c-.03.11,0,.2.08.28,1.21,1.23,2.72,2.12,4.33,2.73.3.11.71.06.97-.13.17-.12.43-.4.12-.54h0Z"/>
          <path d="M338.28,534.39c-1.06,1.1-2.16,2.1-3.4,3-1.7,1.24-2.32,2.09-3.6.17-.78-1.17-1.55-2.36-2.27-3.57-.85-1.43-2.52-3.42-2.19-5.19l-2.41.82c.93.5,1.78.88,2.78,1.19.33.1,1.77-.27,1.33-.81-.54-.67-1.09-1.06-1.8-1.56-.64-.45-2.39-.22-2.59.69-.45,2.09,1.29,4.21,2.36,5.92.99,1.59,2.35,4.82,4.25,5.45,3.02,1,7.36-3.97,9.03-5.81.73-.81-1.06-.74-1.48-.3h0Z"/>
          <path d="M337.18,531.31c-1.36-.21-2.91-.34-4.21.17-.52.2-.68.74,0,.79.55.04,1.09-.09,1.64-.14.6-.05,1.2-.03,1.8.02.3.02.77-.11.96-.36.16-.21.11-.44-.19-.49h0Z"/>
          <path d="M332.15,532.45c-.15-2.32.31-4.45,1.08-6.61.03-.12,0-.23-.08-.32l-.29-.23c-.29-.23-.74-.09-1.03.06-2.39,1.28-1.94,5.34-1.22,7.52.18.55,1.58.14,1.55-.41h0Z"/>
          <path d="M313.37,549.81c-1.37.75-2.96,2.22-4.42,2.67l-.86.54c-.95-.18-1.55-.67-1.82-1.46-.46-.65-.77-1.63-1.11-2.34-.66-1.4-1.33-2.81-1.99-4.21-.61-1.3-2.47-3.71.11-3.52.23.02,1.52-.39,1.06-.77-1.18-.98-3.32-1.01-4.44.21-.73.79-.51,1.42-.21,2.38.66,2.06,1.98,4.13,2.92,6.07s1.77,5.55,4.56,5.22c2.65-.31,5.4-2.85,7.46-4.38.83-.61-.91-.61-1.27-.41h0Z"/>
          <path d="M312.91,545.67c-1.33-.81-2.82-1.27-4.38-1.15-.44.03-1.68.77-.71,1.03,1.26.34,2.53.45,3.77.92.42.16,2.05-.36,1.32-.8h0Z"/>
          <path d="M306.28,545.85c-.14-1.32-.05-2.64.28-3.93.28-1.08,1.12-2.16,1.17-3.25.03-.76-1.35-.27-1.64-.04-2.1,1.74-2.1,5.24-1.37,7.63.17.55,1.62.14,1.56-.42h0Z"/>
          <path d="M290.47,562.87c-1.48.66-2.92,1.54-4.42,2.14-2.65,1.07-3.24-.02-4.51-2.05-1.05-1.68-5.54-7.88-4.19-10.06l-1.31.65c1.34-.08,2.75.31,4.1.3.48,0,2.15-.76,1-1.11-1.42-.44-4.86-1.38-6.08.11-1.58,1.93,1.68,6.63,2.66,8.31,1.15,1.99,2.68,5.92,5.32,6.19s6.24-2.68,8.25-3.91c.88-.53-.32-.8-.83-.58h0Z"/>
          <path d="M289.14,560.11c-1.57-1.17-3.48-1.73-5.32-.72-.28.15-.43.55,0,.61,1.33.2,2.67.1,3.86.85.41.26,1.91-.39,1.45-.74h0Z"/>
          <path d="M282.2,559.06c.41-1.31.92-2.57,1.52-3.8.45-.92,1.37-1.97,1.45-3,.07-.82-1.49-.3-1.79-.04-1.84,1.59-2.51,4.76-2.88,7.05-.11.69,1.53.31,1.7-.21h0Z"/>
          <path d="M263.13,573.92c.28,1.09-5.33,3.41-5.87,3.3-1.19-.25-1.25-.91-1.75-1.98-.44-.93-.86-1.88-1.3-2.81-.72-1.56-1.45-3.12-2.17-4.68-.08-.18-1.2-2.11-1.08-2.39.45-1.02,2.13-.23,2.68.08.33.18,1.7-.07,1.51-.63-.77-2.24-4.06-2.04-5.72-.83-1.04.75-1.18,1.4-.82,2.59.74,2.38,2.29,4.75,3.37,7,1.31,2.72,2.27,6.19,5.92,4.94,1.38-.47,7.43-2.96,6.53-4.92-.2-.42-1.43-.11-1.31.35h0Z"/>
          <path d="M263.94,570.86c-.36-.32-.75-.59-1.14-.86-.45-.31-.85-.64-1.39-.76-.43-.09-2.29.3-1.74,1.05.28.38.89.52,1.31.71.5.22.99.42,1.51.6.36.12.76.07,1.1-.11.17-.09.61-.4.35-.63h0Z"/>
          <path d="M257.27,570.06c.52-1.18.75-2.48,1.23-3.68.36-.91,1.42-2.08,1.24-3.07-.1-.58-1.34-.22-1.61-.03-1.79,1.28-2.98,4.95-2.37,7.08.17.59,1.35.06,1.51-.3h0Z"/>
          <path d="M270.76,530.25c-.73-1.16-1.37-2.38-1.91-3.64-.44-1.03-.53-2.26-1.57-2.78-.33-.17-1.03-.01-1.22.33-.63,1.13.31,2.38.87,3.43.63,1.19,1.37,2.29,2.19,3.36.36.46,2.03-.08,1.64-.69h0Z"/>
          <path d="M269.5,529.59c-1.57,1.51-3.37,3.47-5.28,4.54-1.54.86-1.75.03-2.5-1.27-.64-1.11-.93-2.04-1.98-2.78-.38-.27-1.53-.15-1.62.43-.25,1.62,1.08,3.41,2.15,4.59.78.87,1.64,1.28,2.81.99,1.26-.31,2.29-1.34,3.24-2.17,1.51-1.31,2.87-2.73,4.19-4.23.34-.39-.81-.31-1.02-.11h0Z"/>
          <path d="M268.34,535.86c-1.03-2.44-2.18-4.83-3.25-7.25-.96-2.16-1.61-4.67-3.17-6.47l-1.6.67c.25.34.52.65.81.95.23.26,1.26.03,1.16-.4-.08-.38-.18-.76-.31-1.12-.2-.61-1.75-.15-1.72.46.12,2.55,1.89,5.16,3.06,7.4s2.34,4.21,3.74,6.2c.23.32,1.47-.03,1.29-.44h0Z"/>
          <path d="M242.4,544.37c-.41-1.24-.85-2.48-1.33-3.7-.42-1.07-.71-2.2-1.78-2.74-.28-.14-.93,0-1.02.35-.3,1.09.63,2.13,1.1,3.09.56,1.12,1.04,2.25,1.47,3.43.2.54,1.74.1,1.56-.42h0Z"/>
          <path d="M240.3,543.67c-1.4,1.78-3.76,3.84-6.16,3.21-1.84-.49-1.54-2.42-2.58-3.75l-1,1.12.56-.18c.25-.08,1.23-.59.6-.89l-.33-.16c-.45-.22-2.63.11-2.26.94.54,1.19.83,2.87,1.87,3.73s2.47.87,3.7.66c2.91-.48,5.49-2.28,7.18-4.64.46-.64-1.27-.45-1.6-.04h0Z"/>
          <path d="M239.74,538.86c-1.04-.59-2.12-.22-3.12.29-1.56.79-3.51,1.66-4.78,2.87-.69.67.7.62,1.04.5,1-.36,1.87-.95,2.77-1.5.55-.33,2.23-1.72,2.87-1.42.42.2,1.86-.37,1.22-.74h0Z"/>
          <path d="M239.9,549.03c-.62-2.25-1.55-4.41-2.36-6.6-.72-1.95-1.26-4.07-2.53-5.75-.35-.47-1.75,0-1.72.59.13,2.29,1.42,4.57,2.38,6.63.88,1.91,1.76,3.82,2.91,5.59.23.34,1.45,0,1.33-.45h0Z"/>
          <path d="M300.61,475.58c-1.87-.51-4.38-.91-6.16.03-.2.11-.54.53-.15.66.74.26,1.5.07,2.27.05,1-.03,2,.05,2.98.2.5.08,2.08-.66,1.06-.94h0Z"/>
          <path d="M299.41,468.7c-3.35,1.58-6.77,3.2-9.5,5.76l1.67-.1c-.19-.42-.39-.83-.6-1.24-.22-.43-1.28-.12-1.27.34,0,.46,0,.93.03,1.39.02.55,1.29.16,1.5.03,2.88-1.91,5.6-4.09,8.7-5.66.8-.4.07-.8-.51-.53h0Z"/>
          <path d="M292.32,472.1c-.25-1.88-.11-3.88.3-5.74.18-.81.92-4.45,1.74-4.55.22-.03.9-.25.66-.59l-.16-.23c-.18-.26-.74-.16-.98-.1-4.46,1.05-3.94,8.33-3.07,11.61.14.53,1.58.14,1.51-.4h0Z"/>
          <path d="M296.92,469.52c-2.36-1.73-5.1-2.83-7.92-3.57-1.91-.5-3.76-1.02-5.45.22-.09.07-.27.3-.2.44l.16.33c.2.43,1.04.18,1.3-.07.94-.92,5.11.8,6.1,1.14,1.71.58,3.35,1.32,5.01,2.03.25.11,1.37-.25,1.01-.51h0Z"/>
          <path d="M273.92,488.97c-1.29-.49-3.06-1.28-4.44-.84-.16.05-.71.26-.6.53.22.53,1.12.49,1.6.57.78.14,1.54.34,2.3.57.32.1.82-.05,1.07-.25.17-.14.4-.45.07-.58h0Z"/>
          <path d="M273.77,481.76c-1.93.48-3.79,1.12-5.57,2-1.36.66-3.2,1.41-4.08,2.7-.39.57.82.42,1.04.34,1.41-.57,2.61-1.56,3.96-2.25,1.56-.8,3.2-1.44,4.88-1.93,1.01-.3.8-1.11-.23-.85h0Z"/>
          <path d="M265.74,485.31c-.15-1.93-.1-3.84.22-5.76.13-.78.31-1.54.52-2.3.11-.37.22-.75.34-1.12.47-.64.4-.88-.22-.72.33.13,1.12,0,1.11-.47v-.38c0-.14-.25-.22-.34-.24-4.84-1.13-3.7,9-3.02,11.36.14.49,1.43.12,1.39-.37h0Z"/>
          <path d="M271.45,483.26c-1.11-2.44-3.02-4.31-5.59-5.18-2.11-.71-5.24-1.02-7.07.49-.43.35-.02.64.37.66,2.1.08,3.8-.48,5.89.34s3.73,2.17,4.75,4.13c.28.54,1.88.07,1.65-.44h0Z"/>
          <path d="M249.49,501.05c-1.93-.44-4.45-1.18-6.35-.3-.29.14-.8.5-.35.78.72.45,1.84.17,2.65.16,1.12-.01,2.27-.02,3.38.09.36.04,1.4-.57.66-.74h0Z"/>
          <path d="M248,494.95c-2.02.81-4.03,1.63-6.04,2.45-1.58.65-3.31,1.14-4.66,2.21-.46.36.18.6.5.54,3.72-.69,7.42-2.98,10.86-4.53,1.05-.48.09-.97-.65-.68h0Z"/>
          <path d="M240.43,498.29c-.84-1.89-.77-3.83-.27-5.8.33-1.3,1.07-4.9,2.47-5.31.33-.1,1.17-.53.61-.9-1.79-1.17-3.79,1.04-4.41,2.49-1.37,3.17-2.18,6.92-.4,10.06.36.63,2.29.1,2-.54h0Z"/>
          <path d="M246.67,495.69c-2.13-2.49-4.75-4.6-7.94-5.58-2.09-.64-5.08-.79-6.49,1.2-.44.62.91.48,1.15.37,3.91-1.74,9.06,2.08,11.8,4.63.38.35,1.9-.13,1.48-.62h0Z"/>
          <path d="M225.89,514.04c-1.39-.74-2.98-1.41-4.53-.79-.22.09-.66.43-.28.63.49.26,1.08.2,1.62.24.75.06,1.45.24,2.12.58.39.2,1.64-.36,1.08-.66h0Z"/>
          <path d="M224.85,507.6c-1.8.42-3.55,1-5.22,1.79-1.3.62-3,1.29-3.86,2.49-.42.59.86.44,1.08.35,1.36-.55,2.52-1.5,3.85-2.13,1.42-.67,2.89-1.16,4.41-1.53,1.18-.29.92-1.25-.26-.98h0Z"/>
          <path d="M217.16,510.43c-.17-2.02.13-3.96.72-5.89.39-1.28,1.03-4.09,2.08-4.98l-1.36.46.28.34c.06.56,1.4.1,1.56-.2,1.06-1.98-2.27-1.38-3.07-.39-1.03,1.28-1.43,3.5-1.81,5.06-.5,2.06-.62,4-.15,6.07.14.61,1.8.16,1.75-.47h0Z"/>
          <path d="M223.31,508.27c-2.94-3.6-7.47-8.12-12.62-6.8-.43.11-1.22.72-.43.94,2.23.63,4.29.69,6.37,1.92s3.69,2.85,5.3,4.53c.34.36,1.77-.12,1.39-.58h0Z"/>
          <path d="M236.05,510.5c-3.9-8.23-7.58-16.82-12.43-24.53-.4-.63-2.39.26-1.87.79l.77.78c.22.22,1.14.07,1.15-.31l.03-.99-2.01.4c3.45,8.4,8.36,16.38,12.79,24.29.28.51,1.81.06,1.58-.42h0Z"/>
          <path d="M262.05,496.93c-3.83-7.5-7.68-16.17-13.05-22.7-.34-.41-2.05,0-1.82.62,3.01,7.89,8.86,15.53,13.54,22.53.23.35,1.52-.07,1.33-.45h0Z"/>
          <path d="M285.64,488.25c-4.94-8.35-9.45-17.03-14.94-25.04l-1.82.92,1.16.51c.3.13,1.68-.14,1.27-.65l-.62-.78c-.39-.49-2.35.09-2.03.69,4.61,8.64,10.29,16.69,15.48,24.98.28.45,1.84-.06,1.5-.63h0Z"/>
          <path d="M314.17,473.64c-1.12-2.62-2.49-5.14-4.24-7.39-.34-.44-1.93.09-1.55.65,1.6,2.31,3.16,4.61,4.5,7.08.22.41,1.47.07,1.29-.35h0Z"/>
          <path d="M280.83,531.82c-4.01-6.05-5.38-14.67-10.82-19.67-.27-.25-1.42-.05-1.29.44.96,3.82,3.85,7.35,5.61,10.89,1.54,3.1,2.87,6.24,5.1,8.92.32.38,1.75-.07,1.4-.59h0Z"/>
          <path d="M255.3,546.67c-2.42-6.88-5.07-15.4-9.65-21.15-.3-.37-1.67-.02-1.54.53.85,3.65,3.06,7.15,4.68,10.53s3.4,6.99,5.19,10.45c.22.42,1.48.1,1.32-.35h0Z"/>
          <path d="M352.18,537.14c-2.56-7.32-6.06-15.46-10.29-21.97-.27-.41-1.75,0-1.59.54,2.26,7.41,6.4,15.29,10.37,21.94.24.4,1.68-.02,1.51-.51h0Z"/>
          <path d="M322.92,554.02c-1.68-4.42-3.88-8.65-5.95-12.9-1.83-3.76-3.49-7.7-6.02-11.04-.24-.31-1.4,0-1.28.44,1.24,4.53,3.82,8.74,5.96,12.9,1.92,3.72,3.75,7.5,5.98,11.06.21.34,1.47-.03,1.31-.45h0Z"/>
          <path d="M298.99,564.78l.42.82c.28.55,1.93.11,1.71-.46-1.5-4.07-3.44-7.98-5.26-11.92-1.59-3.46-2.89-7.26-5.34-10.2-.24-.29-1.25-.02-1.18.4.63,3.89,2.97,7.63,4.65,11.19s3.4,7.44,5.42,10.99l1.65-.57-.91-.65c-.22-.16-1.38-.02-1.16.4h0Z"/>
          <path d="M274.85,580.71c-3.8-7.95-7.03-16.47-10.48-24.57l-1.02.43.04-.14c-.22.28.37.27.49.24l.08-.02c.17-.04.46-.17.43-.38l-.02-.13c-.05-.41-.98-.06-1.1.14-1.57,2.53,2.74,9.75,3.81,12.26,1.75,4.11,3.21,9.26,6.04,12.76.33.41,2-.05,1.74-.59h0Z"/>
          <path d="M374.31,574c-3.88-8.07-9.85-16.97-16.28-23.22-.27-.26-1.59.04-1.36.46,2.14,3.87,5.02,7.31,7.61,10.88,2.96,4.07,5.65,8.39,8.85,12.28.22.27,1.36-.03,1.18-.4h0Z"/>
          <path d="M347.71,592.98c-2.42-5-4.94-9.95-7.47-14.9-2.23-4.36-4.19-9.31-7.42-13.03-.28-.32-1.53-.03-1.41.48,1.18,4.92,4.46,9.63,6.87,14.07s5.03,9.28,7.65,13.86c.32.57,2.04.06,1.78-.48h0Z"/>
          <path d="M321.64,609.77c-5.16-10.44-9.5-21.98-16.4-31.43-.31-.43-1.96.02-1.74.59,4.19,10.88,11.23,20.87,16.48,31.28.28.56,1.9.04,1.66-.45h0Z"/>
          <path d="M296.95,624.41c-3-6.17-5.93-12.36-8.75-18.62-2.57-5.7-4.75-11.78-7.93-17.17-.24-.41-1.65,0-1.52.52,3.09,12.36,10.22,24.6,16.09,35.83.37.7,2.41.06,2.11-.56h0Z"/>
          <g>
            <path class="cls-2" d="M192.91,627.59v.03c-1.59.33-3.16.94-4.59,1.67s-2.98,1.51-4.36,2.41c-.67-.59-1.31-1.12-1.91-1.58-3.08-2.34-6.09-4.78-9.38-6.77.02,0,.03-.03.04-.03,0,0,0,0,0,0,3.36-1.39,6.53-3.27,9.87-4.74,3.29-1.44,6.61-2.2,10.01-3.03,0,4.02.32,8.03.31,12.05Z"/>
            <path d="M196.28,614.03c.58,6.06.94,12.22.37,18.3-.26,2.76-.53,7.75-4.04,8.38-3.31.6-7.64-3.97-10.01-5.82-.21-.16-.42-.32-.63-.49l.61-.8c.14.21.4.38.73.47.69.18,1.5.04,2.2-.27.03,0,.06-.03.08-.03l.05-.03c.07-.03.13-.06.19-.1.08-.03.15-.08.22-.12,1.9,1.65,3.95,3.35,5.94,4.37-.25.59-.56,1.09-.96,1.47.92-.25,1.84-.49,2.76-.75-.59-.17-1.19-.41-1.79-.72.98-2.26.98-5.78.93-8.38.66-.31,1.32-.63,1.98-1.01,1.01-.58.19-1.17-.63-1.11-.03,0-.05,0-.08,0-.08,0-.16.02-.24.03-.03,0-.06,0-.1.03-.32.03-.64.08-.96.15v-.03c0-4.02-.32-8.03-.31-12.05.44-.12.89-.23,1.34-.35.71.04,1.79-.43,1.64-.98-.07-.25-.13-.51-.2-.76.49.03.86.2.9.58Z"/>
            <path d="M195.59,614.21c.14.55-.93,1.02-1.64.98.21-.05.43-.11.65-.17.48-.13,1.39-.81.49-1.06-.42-.12-.85-.2-1.29-.25.52-.19,1.12-.3,1.6-.26.07.25.13.51.2.76Z"/>
            <path d="M195.39,613.45c-.48-.04-1.08.07-1.6.26-.39-.04-.79-.07-1.19-.07-2.96-5.06-5-10.84-7.2-16.24-2.59-6.37-5.2-12.73-7.91-19.06-5.51-12.84-11.8-25.34-19.97-36.7.71-.5,1.38-1.07,1.97-1.72.99-1.09-1.03-1.11-1.67-.8-.42.19-.83.4-1.24.6.48-.91,2.91-1.56,3.52-.76,8.47,11.13,14.76,23.68,20.34,36.45,2.77,6.31,5.28,12.73,7.81,19.13,2.43,6.18,5.42,12.47,7.15,18.9Z"/>
            <path d="M195.08,613.96c.91.25,0,.94-.49,1.06-.22.06-.44.12-.65.17-.25,0-.45-.08-.55-.23-.16-.25-.32-.5-.47-.76.21-.19.52-.36.86-.49.44.05.87.13,1.29.25Z"/>
            <path d="M194.29,627.42c.82-.07,1.63.53.63,1.11-.65.38-1.32.7-1.98,1.01,0-.29,0-.55-.02-.81.05.02.11.03.16.05.4-.45.8-.9,1.21-1.35Z"/>
            <path d="M194.29,627.42c-.4.45-.8.9-1.21,1.35-.05-.02-.11-.03-.16-.05,0-.27,0-.52,0-.75.3-.23.73-.43.96-.49.12-.03.23-.04.34-.05.03,0,.05,0,.08,0Z"/>
            <path d="M194.21,627.43c-.12,0-.23.03-.34.05.04-.02.08-.03.1-.03.08,0,.16-.02.24-.03Z"/>
            <path d="M193.8,638.63c-.91.25-1.84.49-2.76.75.4-.38.71-.88.96-1.47.6.31,1.21.55,1.79.72Z"/>
            <path d="M192.91,627.63c.32-.07.64-.12.96-.15-.23.06-.65.26-.96.49v-.34Z"/>
            <path d="M193.39,614.96c.1.15.3.23.55.23-.45.13-.9.23-1.34.35,0-.27,0-.53,0-.8,0-.2.12-.39.31-.55.15.26.31.51.47.76Z"/>
            <path d="M192.59,613.64c.4,0,.8.03,1.19.07-.34.13-.65.29-.86.49-.12-.18-.23-.37-.33-.55Z"/>
            <path d="M192.94,629.53c.05,2.59.05,6.11-.93,8.38-2-1.02-4.04-2.72-5.94-4.37.17-.1.33-.2.47-.32.86-.54,1.74-1.02,2.57-1.63,1.22-.88,2.52-1.46,3.83-2.06Z"/>
            <path d="M192.92,628.72c0,.26.02.53.02.81-1.31.6-2.62,1.18-3.83,2.06-.83.6-1.71,1.08-2.57,1.63-.22.08-.41.14-.6.2-.68-.59-1.34-1.17-1.97-1.71,1.38-.91,2.93-1.69,4.36-2.41s2.99-1.34,4.59-1.67v.34c-.35.27-.54.56-.06.73.03,0,.04.02.07.03Z"/>
            <path d="M192.91,627.96c0,.23,0,.49,0,.75-.03,0-.04-.02-.07-.03-.48-.17-.29-.46.06-.73Z"/>
            <path d="M192.59,613.64c.1.18.21.37.33.55-.19.17-.31.35-.31.55,0,.27,0,.53,0,.8-3.4.84-6.72,1.59-10.01,3.03-3.34,1.47-6.51,3.35-9.87,4.74.39-.34.6-.82.45-1.47-.08-.39-.49-.54-.99-.52-.03-.07-.05-.14-.08-.22,3.71-2,7.65-3.79,11.55-5.26,2.65-1,5.9-2.22,8.93-2.21Z"/>
            <path d="M192.59,613.64c-3.03,0-6.28,1.22-8.93,2.21-3.91,1.47-7.84,3.26-11.55,5.26-2.33-6.92-5.47-13.62-8.17-20.41-3-7.54-6.03-15.06-9.01-22.6-2.82-7.12-5.67-14.34-7.05-21.89-.27-1.49-.56-3.03-.65-4.54-.18-3.38,1.52-4.7,4.14-6.39,1.95-1.26,4.22-2.26,6.14-3.63,8.17,11.36,14.46,23.85,19.97,36.7,2.72,6.32,5.32,12.68,7.91,19.06,2.2,5.4,4.24,11.18,7.2,16.24Z"/>
            <path d="M186.53,633.22c-.14.12-.3.22-.47.32h0c.16-.11.31-.22.48-.32Z"/>
            <path d="M186.53,633.22c-.17.1-.32.21-.48.31-.04-.03-.08-.07-.12-.11.18-.06.38-.13.6-.2Z"/>
            <path d="M186.05,633.53h0c-.07.05-.14.09-.22.13.08-.04.14-.08.21-.13Z"/>
            <path d="M185.94,633.42s.08.08.12.11c-.07.04-.13.08-.21.13-.06.04-.13.07-.19.1l-.05.03s-.06.03-.08.03c-.26.11-.54.18-.81.23-.96.21-.55,0,1.23-.62Z"/>
            <path d="M184.7,634.04c.28-.04.55-.12.81-.23-.7.31-1.52.45-2.2.27-.33-.09-.59-.26-.73-.47-.23-.33-.19-.76.29-1.14.34-.26.71-.52,1.09-.76.63.54,1.29,1.12,1.97,1.71-1.79.63-2.19.83-1.23.62Z"/>
            <path d="M183.97,631.71c-.38.24-.75.5-1.09.76-.49.38-.53.81-.29,1.14l-.61.8c-4.22-3.22-9.05-6.36-12.38-10.48.44.29,1.12.16,1.6.06.54-.1,1.09-.3,1.48-.63,3.29,2,6.3,4.44,9.38,6.77.6.45,1.24.99,1.91,1.58Z"/>
            <path d="M173.18,621.85c.14.65-.07,1.12-.45,1.47,0,0,0,0,0,0-.02,0-.03.02-.06.02-.31-.19-.63-.38-.95-.56-.29-.16-1.06-.07-1.62.17.43-.22.86-.43,1.29-.65.41.14.84.28,1.25.41-.14-.46-.29-.91-.44-1.37.49-.02.91.13.99.52Z"/>
            <path d="M172.72,623.33s-.03.03-.04.03t-.02-.02s.04,0,.06-.02Z"/>
            <path d="M172.66,623.34s0,0,.02.02c-.39.33-.94.53-1.48.63-.48.1-1.17.23-1.6-.06-.02-.02-.03-.03-.04-.05-.08-.1-.12-.2-.12-.29.57.3,1.72.36,2.33.13.3-.12.6-.23.9-.37Z"/>
            <path d="M172.66,623.34c-.29.13-.6.25-.9.37-.61.23-1.76.18-2.33-.13,0-.21.18-.39.45-.54.07-.03.13-.07.21-.1.56-.23,1.33-.33,1.62-.17.32.18.64.37.95.56Z"/>
            <path d="M172.19,621.33c.15.46.3.91.44,1.37-.41-.13-.84-.27-1.25-.41.08-.03.16-.08.24-.12-.14.02-.29.03-.44.06.07.03.13.04.19.06-.43.23-.86.44-1.29.65-.08.03-.14.07-.21.1.06-.12.13-.24.19-.37,0-.21.09-.41.26-.6.38-.21.76-.43,1.14-.63h0c.24-.08.48-.12.7-.13Z"/>
            <path d="M172.11,621.11c.03.08.05.15.08.22-.23,0-.46.05-.7.12.21-.12.42-.23.63-.34Z"/>
            <path d="M172.11,621.11c-.21.11-.42.22-.63.34h0c-.44.13-.87.36-1.14.64-.17.09-.34.19-.5.29-.55.32-.76.59-.75.81-4.07-8.12-7.1-16.81-10.61-25.18-3.41-8.13-6.84-16.27-9.95-24.52-1.53-4.07-2.91-8.21-3.89-12.45-.75-3.25-2.1-7.75-1.31-11.13.6-2.59,3.01-4.04,5.1-5.38,2.62-1.69,5.35-3.37,8.15-4.79-.12.22-.12.46.06.7.29.4.59.8.88,1.22-1.92,1.37-4.18,2.37-6.14,3.63-2.62,1.69-4.33,3.01-4.14,6.39.08,1.52.38,3.05.65,4.54,1.38,7.55,4.23,14.77,7.05,21.89,2.98,7.55,6.01,15.07,9.01,22.6,2.7,6.79,5.84,13.48,8.17,20.41Z"/>
            <path d="M171.63,622.18c-.08.04-.16.08-.24.12-.07-.02-.13-.03-.19-.06.14-.03.29-.04.44-.06Z"/>
            <path d="M171.48,621.46c-.38.2-.76.42-1.14.63.27-.28.7-.5,1.14-.63Z"/>
            <path d="M169.83,622.37c.17-.09.34-.19.5-.29-.17.18-.27.39-.26.6-.07.13-.13.25-.19.37-.27.14-.45.33-.45.54-.08-.04-.16-.09-.22-.15l-.13-.25c-.02-.23.19-.49.75-.81Z"/>
            <path d="M169.55,623.88s.03.03.04.05c-.12-.08-.22-.18-.29-.33-.03-.06-.06-.11-.08-.17.06.06.13.11.22.15,0,.09.03.19.12.29Z"/>
            <path d="M169.09,623.18l.13.25c-.08-.08-.12-.16-.13-.25Z"/>
            <path d="M157.81,539.13c.64-.3,2.66-.29,1.67.8-.59.65-1.26,1.22-1.97,1.72-.29-.41-.59-.81-.88-1.22-.18-.24-.18-.49-.06-.7.41-.2.82-.41,1.24-.6Z"/>
          </g>
        </g>
      </g>
    </g>
  </g>
  <g>
    <path d="M739.46,452c-3.9,0-10.2,1.8-11.4-11.1-1.5-12.6-1.8-20.7-5.7-29.1s-5.4-17.7-6-27.3c-.3-9.9-3.3-28.8-7.5-28.8s-10.2,9.3-12.6,17.4c-2.7,7.8-9.3,18.9-9.9,24.6-.3,5.7-5.4,8.7-7.2,18-1.5,9.3-4.5,25.8-17.7,25.8s-19.5-13.2-22.8-31.5c-3.6-18-6-33.9-9.3-33.9-3.6,0-9.3,7.5-11.1,15-1.8,7.5-4.5,11.1-4.2,20.4.3,9.3-5.1,11.4-7.2,22.8-2.1,11.4-6,19.5-9,31.8-3,12.3-4.5,13.8-4.5,19.8,0,6.3-4.8,8.1-7.8,8.1s-12.3-8.4-12.3-15.9c0-11.1,7.2-28.8,10.2-46.5s12-21.9,12.3-33c.6-11.1,9.9-23.4,14.1-31.8,4.2-8.4,10.5-18.9,11.1-22.2.3-3,1.5-6.6,5.4-6.6s11.7,6.3,15.6,15.9c3.9,9.9,7.5,22.5,9.3,32.4,1.8,9.6,3.3,17.1,7.2,17.1s9.9-12.9,12-21.6c2.1-8.7,10.8-25.5,18-36.6,7.2-11.1,13.5-22.5,19.5-22.5s14.1,4.5,17.7,14.1c3.9,9.6,9.6,30,9.9,43.2s2.4,20.7,5.1,26.1c2.4,5.4-1.2,15,1.2,20.4,2.7,5.1,5.1,11.7,5.1,16.8,0,4.8-3.9,8.7-7.5,8.7Z"/>
    <path d="M807.26,342.5c-3.9,0-9.3-6.3-12.9-8.1-3.3-1.8-8.4-6.3-8.4-10.5s5.1-11.1,9-11.1c5.7,0,12.9,3.3,13.5,6.3.3,3,9.6-1.2,9.6,8.1s-7.2,15.3-10.8,15.3ZM815.06,462.8c0,3.3-2.4,3.6-6.6,3.6s-10.5-3.6-10.5-13.8-2.7-26.7-3.9-34.2c-1.2-7.8,0-19.5-2.1-23.1-2.1-3.3-3.3-6.3-3.3-8.4s3.6-10.5,7.5-10.5c4.2,0,13.2,4.2,13.2,9.3s0,16.5,2.1,21.9c2.1,5.7,4.2,15.3,4.2,20.7,0,5.7,6,16.2,3,18.3s-3.6,12.6-3.6,16.2Z"/>
    <path d="M967.45,468.2c-3.3,0-12-3.3-18.3-6-5.7-2.7-13.5-10.5-16.2-16.5-1.5-3-2.7-7.2-3.9-10.8-1.8-4.2-3.6-7.2-5.7-7.2-3.3,0-6.9,6-8.7,8.4-1.8,2.7-2.7,3.9-5.4,5.7-.9.9-2.1,1.8-3.3,2.4-2.1,1.5-4.5,3.6-4.8,6.3-.6,3.3-13.5,10.5-17.7,10.5-3.6,0-15.9-8.1-18.3-13.8l-1.5-5.4c-.3-2.4-.9-4.8-1.5-7.2-.9-4.8-2.1-9.3-3.6-9.9-2.1-1.5.3-15,2.4-22.2,1.2-3.6,3-6.3,4.5-8.4,1.2-1.8,3-3.9,3.3-6.3.3-3.9,3-7.5,5.4-7.5,4.5,0,11.4,5.1,11.4,7.8,0,1.5-.6,3.3-1.5,5.7l-3.3,8.1c-1.8,6.3.9,27.3,7.5,27.3,3.3,0,6-1.5,7.8-2.7l3-1.8c.6-.6,1.2-.6,1.8-.6,1.8,0,3.9-3,5.7-6.6l2.1-4.8c.9-1.5,1.5-3,2.1-3.6,1.5-2.1,3.9-6,6.6-9.6,2.4-3,4.5-6,6.6-6,3.6,0,11.7,4.5,13.2,10.8.6,1.8,1.5,3.9,2.7,6.3.9,2.1,2.4,4.5,3.6,6.9,2.4,4.5,4.8,9,5.7,12.6,1.2,7.5,10.5,18.3,15.6,24,1.8,2.1,3.9,3.3,6,4.8,1.8,1.2,2.7,2.4,2.7,3.9,0,3.3-2.7,5.4-6,5.4Z"/>
  </g>
</svg>